<svg width="1080" height="1100" viewBox="0 0 1080 1100" fill="none" xmlns="http://www.w3.org/2000/svg">
<path d="M482.205 916.071C950.483 863.499 996.554 816.484 981.711 680.673C937.049 574.716 943.784 218.356 571.73 119.867C309.393 104.722 216.809 210.457 103.763 395.743C-41.3843 633.643 -28.883 934.163 482.205 916.071Z" fill="#F8DFEF"/>
<path d="M472.521 378.915C484.748 465.072 533.791 562.482 558.614 378.125" stroke="black" stroke-width="12" stroke-linecap="round"/>
<path d="M307.35 394.986C295.122 366.143 251.134 335.994 233.634 401.271" stroke="black" stroke-width="12" stroke-linecap="round"/>
<path d="M764.826 407.182C762.604 375.81 730.839 332.399 693.248 388.031" stroke="black" stroke-width="12" stroke-linecap="round"/>
<ellipse cx="197.493" cy="517.647" rx="61.2374" ry="55.9955" fill="#F9C5E1"/>
<ellipse cx="835.331" cy="517.647" rx="61.2374" ry="55.9955" fill="#F9C5E1"/>
</svg>
