<svg width="764" height="704" viewBox="0 0 764 704" fill="none" xmlns="http://www.w3.org/2000/svg">
<path d="M344.362 586.286C651.984 552.639 682.248 522.55 672.498 435.631C643.158 367.818 647.583 139.748 403.173 76.7146C230.838 67.022 170.018 134.692 95.7546 253.276C0.404508 405.532 8.6169 597.864 344.362 586.286Z" fill="#F8DFEF"/>
<path d="M338 242.505C346.032 297.646 378.25 359.988 394.556 242" stroke="black" stroke-width="12" stroke-linecap="round"/>
<path d="M229.496 252.791C221.463 234.332 192.566 215.036 181.07 256.813" stroke="black" stroke-width="12" stroke-linecap="round"/>
<path d="M530.021 260.597C528.562 240.519 507.695 212.735 483 248.34" stroke="black" stroke-width="12" stroke-linecap="round"/>
<ellipse cx="157.328" cy="331.294" rx="40.2281" ry="35.8371" fill="#F9C5E1"/>
<ellipse cx="576.338" cy="331.294" rx="40.2281" ry="35.8371" fill="#F9C5E1"/>
</svg>
