<svg width="749" height="636" viewBox="0 0 749 636" fill="none" xmlns="http://www.w3.org/2000/svg">
<path d="M741.861 406.113C700.053 544.364 578.189 487.336 406.511 577.199C234.834 667.062 0 673.642 0 455.365C0 237.088 175.042 0 406.511 0C637.98 0 783.668 267.862 741.861 406.113Z" fill="#C2D7FF"/>
<path d="M418.688 264.222C395.237 198.3 340.241 129.457 349.19 278.752" stroke="black" stroke-width="12" stroke-linecap="round"/>
<path d="M144 251.429C163.67 270.217 218.215 278.688 222.893 220" stroke="black" stroke-width="12" stroke-linecap="round"/>
<path d="M475 122.429C494.67 141.217 549.215 149.688 553.893 91" stroke="black" stroke-width="12" stroke-linecap="round"/>
<ellipse cx="115.5" cy="363" rx="50.5" ry="45" fill="#F9C5E1"/>
<ellipse cx="615.5" cy="205" rx="50.5" ry="45" fill="#F9C5E1"/>
<path fill-rule="evenodd" clip-rule="evenodd" d="M223.751 304.636C223.751 304.636 308.857 348.643 322.246 378.025C337.073 410.562 324.974 447.988 295.249 461.534C265.515 475.083 229.341 459.655 214.514 427.118C201.125 397.735 223.751 304.636 223.751 304.636Z" fill="#3088CB"/>
</svg>
