<svg width="975" height="382" viewBox="0 0 975 382" fill="none" xmlns="http://www.w3.org/2000/svg">
<path d="M394.132 327.453C357.522 398.42 323.04 364.001 214.991 364.001C106.942 364.001 45.915 426.806 9.90203 314.109C-26.1109 201.411 37.6086 71.3626 176.603 55.296C315.598 39.2293 430.743 256.486 394.132 327.453Z" fill="#EADBFF"/>
<ellipse cx="60.8261" cy="274.613" rx="34.6933" ry="31.5754" fill="#EEAACE"/>
<ellipse cx="338.372" cy="252.121" rx="34.6933" ry="31.5754" fill="#EEAACE"/>
<path d="M261.263 180.752C264.047 199.361 284.699 223.126 304.078 187.251" stroke="#5C4D4D" stroke-width="12" stroke-linecap="round"/>
<path d="M70 206.822C81.932 221.371 111.847 231.187 110.092 190.45" stroke="#5C4D4D" stroke-width="12" stroke-linecap="round"/>
<path d="M164.004 202.684C174.548 243.449 203.507 287.801 205.613 198.053" stroke="#5C4D4D" stroke-width="9" stroke-linecap="round"/>
<path d="M333.125 57.6C332.575 54.35 331.125 50.85 328.775 47.1C326.425 43.3 323.075 39.775 318.725 36.525C314.425 33.275 310.125 31.2 305.825 30.3V27.15C310.075 26.15 314.15 24.3 318.05 21.6C322 18.85 325.3 15.55 327.95 11.7C330.65 7.75001 332.375 3.85001 333.125 1.13845e-05H336.275C336.725 2.50001 337.625 5.07501 338.975 7.72501C340.325 10.325 342.05 12.825 344.15 15.225C346.3 17.575 348.7 19.7 351.35 21.6C355.3 24.4 359.325 26.25 363.425 27.15V30.3C360.675 30.85 357.825 31.975 354.875 33.675C351.975 35.375 349.275 37.4 346.775 39.75C344.275 42.05 342.225 44.475 340.625 47.025C338.275 50.775 336.825 54.3 336.275 57.6H333.125Z" fill="#FFF7D0"/>
<path d="M388.9 95.97C388.46 93.37 387.3 90.57 385.42 87.57C383.54 84.53 380.86 81.71 377.38 79.11C373.94 76.51 370.5 74.85 367.06 74.13V71.61C370.46 70.81 373.72 69.33 376.84 67.17C380 64.97 382.64 62.33 384.76 59.25C386.92 56.09 388.3 52.97 388.9 49.89H391.42C391.78 51.89 392.5 53.95 393.58 56.07C394.66 58.15 396.04 60.15 397.72 62.07C399.44 63.95 401.36 65.65 403.48 67.17C406.64 69.41 409.86 70.89 413.14 71.61V74.13C410.94 74.57 408.66 75.47 406.3 76.83C403.98 78.19 401.82 79.81 399.82 81.69C397.82 83.53 396.18 85.47 394.9 87.51C393.02 90.51 391.86 93.33 391.42 95.97H388.9Z" fill="#FFF7D0"/>
<mask id="path-9-outside-1_24_23" maskUnits="userSpaceOnUse" x="441" y="120.45" width="504" height="233" fill="black">
<rect fill="white" x="441" y="120.45" width="504" height="233"/>
<path d="M489 217.65C482.52 217.65 476.44 216.45 470.76 214.05C465.16 211.57 460.24 208.17 456 203.85C451.84 199.45 448.56 194.33 446.16 188.49C443.84 182.65 442.68 176.33 442.68 169.53C442.68 162.81 443.84 156.57 446.16 150.81C448.56 144.97 451.84 139.89 456 135.57C460.24 131.17 465.16 127.73 470.76 125.25C476.36 122.77 482.44 121.53 489 121.53C495.16 121.53 500.44 122.33 504.84 123.93C509.32 125.53 513.8 128.17 518.28 131.85C518.92 132.33 519.4 132.85 519.72 133.41C520.12 133.89 520.36 134.41 520.44 134.97C520.6 135.45 520.68 136.05 520.68 136.77C520.68 138.29 520.12 139.57 519 140.61C517.96 141.57 516.68 142.13 515.16 142.29C513.64 142.37 512.16 141.85 510.72 140.73C507.76 138.17 504.68 136.21 501.48 134.85C498.36 133.49 494.2 132.81 489 132.81C484.28 132.81 479.84 133.77 475.68 135.69C471.52 137.61 467.84 140.25 464.64 143.61C461.52 146.97 459.08 150.89 457.32 155.37C455.56 159.77 454.68 164.49 454.68 169.53C454.68 174.65 455.56 179.45 457.32 183.93C459.08 188.33 461.52 192.21 464.64 195.57C467.84 198.93 471.52 201.57 475.68 203.49C479.84 205.33 484.28 206.25 489 206.25C493.08 206.25 496.92 205.57 500.52 204.21C504.2 202.77 507.72 200.81 511.08 198.33C512.52 197.29 513.92 196.85 515.28 197.01C516.72 197.09 517.92 197.65 518.88 198.69C519.84 199.65 520.32 201.01 520.32 202.77C520.32 203.57 520.16 204.37 519.84 205.17C519.52 205.89 519.04 206.57 518.4 207.21C514.08 210.65 509.44 213.25 504.48 215.01C499.6 216.77 494.44 217.65 489 217.65ZM561.637 216.93C555.797 216.93 550.557 215.49 545.917 212.61C541.277 209.65 537.597 205.69 534.877 200.73C532.237 195.69 530.917 190.01 530.917 183.69C530.917 177.37 532.357 171.69 535.237 166.65C538.197 161.61 542.157 157.65 547.117 154.77C552.157 151.81 557.797 150.33 564.037 150.33C570.277 150.33 575.877 151.81 580.837 154.77C585.797 157.65 589.717 161.61 592.597 166.65C595.557 171.69 597.037 177.37 597.037 183.69H592.357C592.357 190.01 590.997 195.69 588.277 200.73C585.637 205.69 581.997 209.65 577.357 212.61C572.717 215.49 567.477 216.93 561.637 216.93ZM564.037 206.13C568.117 206.13 571.757 205.17 574.957 203.25C578.157 201.25 580.677 198.57 582.517 195.21C584.357 191.77 585.277 187.93 585.277 183.69C585.277 179.37 584.357 175.53 582.517 172.17C580.677 168.73 578.157 166.05 574.957 164.13C571.757 162.13 568.117 161.13 564.037 161.13C560.037 161.13 556.397 162.13 553.117 164.13C549.917 166.05 547.357 168.73 545.437 172.17C543.597 175.53 542.677 179.37 542.677 183.69C542.677 187.93 543.597 191.77 545.437 195.21C547.357 198.57 549.917 201.25 553.117 203.25C556.397 205.17 560.037 206.13 564.037 206.13ZM590.917 216.57C589.157 216.57 587.677 216.01 586.477 214.89C585.357 213.69 584.797 212.21 584.797 210.45V192.09L587.077 179.37L597.037 183.69V210.45C597.037 212.21 596.437 213.69 595.237 214.89C594.117 216.01 592.677 216.57 590.917 216.57ZM701.413 216.57C699.653 216.57 698.173 216.01 696.973 214.89C695.853 213.69 695.293 212.21 695.293 210.45V176.13C695.293 171.09 694.053 167.37 691.573 164.97C689.093 162.49 685.853 161.25 681.853 161.25C677.693 161.25 674.253 162.69 671.533 165.57C668.893 168.45 667.573 172.13 667.573 176.61H657.613C657.613 171.41 658.733 166.85 660.973 162.93C663.213 158.93 666.333 155.81 670.333 153.57C674.413 151.33 679.053 150.21 684.253 150.21C688.813 150.21 692.853 151.21 696.373 153.21C699.893 155.21 702.613 158.17 704.533 162.09C706.533 165.93 707.533 170.61 707.533 176.13V210.45C707.533 212.21 706.973 213.69 705.853 214.89C704.733 216.01 703.253 216.57 701.413 216.57ZM621.373 216.57C619.613 216.57 618.133 216.01 616.933 214.89C615.813 213.69 615.253 212.21 615.253 210.45V157.05C615.253 155.21 615.813 153.73 616.933 152.61C618.133 151.49 619.613 150.93 621.373 150.93C623.213 150.93 624.693 151.49 625.813 152.61C626.933 153.73 627.493 155.21 627.493 157.05V210.45C627.493 212.21 626.933 213.69 625.813 214.89C624.693 216.01 623.213 216.57 621.373 216.57ZM661.453 216.57C659.693 216.57 658.213 216.01 657.013 214.89C655.893 213.69 655.333 212.21 655.333 210.45V176.13C655.333 171.09 654.093 167.37 651.613 164.97C649.133 162.49 645.893 161.25 641.893 161.25C637.733 161.25 634.293 162.69 631.573 165.57C628.853 168.45 627.493 172.13 627.493 176.61H619.933C619.933 171.41 620.973 166.85 623.053 162.93C625.133 158.93 628.013 155.81 631.693 153.57C635.373 151.33 639.573 150.21 644.293 150.21C648.853 150.21 652.893 151.21 656.413 153.21C659.933 155.21 662.653 158.17 664.573 162.09C666.573 165.93 667.573 170.61 667.573 176.13V210.45C667.573 212.21 667.013 213.69 665.893 214.89C664.773 216.01 663.293 216.57 661.453 216.57ZM733.99 244.53C732.23 244.53 730.75 243.93 729.55 242.73C728.43 241.61 727.87 240.17 727.87 238.41V183.69C727.95 177.37 729.43 171.69 732.31 166.65C735.19 161.61 739.11 157.65 744.07 154.77C749.03 151.81 754.63 150.33 760.87 150.33C767.19 150.33 772.83 151.81 777.79 154.77C782.75 157.65 786.67 161.61 789.55 166.65C792.51 171.69 793.99 177.37 793.99 183.69C793.99 190.01 792.63 195.69 789.91 200.73C787.27 205.69 783.63 209.65 778.99 212.61C774.35 215.49 769.11 216.93 763.27 216.93C758.55 216.93 754.19 215.97 750.19 214.05C746.27 212.05 742.91 209.37 740.11 206.01V238.41C740.11 240.17 739.55 241.61 738.43 242.73C737.31 243.93 735.83 244.53 733.99 244.53ZM760.87 206.13C764.95 206.13 768.59 205.17 771.79 203.25C774.99 201.25 777.51 198.57 779.35 195.21C781.27 191.77 782.23 187.93 782.23 183.69C782.23 179.37 781.27 175.53 779.35 172.17C777.51 168.73 774.99 166.05 771.79 164.13C768.59 162.13 764.95 161.13 760.87 161.13C756.87 161.13 753.23 162.13 749.95 164.13C746.75 166.05 744.23 168.73 742.39 172.17C740.55 175.53 739.63 179.37 739.63 183.69C739.63 187.93 740.55 191.77 742.39 195.21C744.23 198.57 746.75 201.25 749.95 203.25C753.23 205.17 756.87 206.13 760.87 206.13ZM839.845 217.05C834.325 217.05 829.365 215.89 824.965 213.57C820.645 211.17 817.205 207.69 814.645 203.13C812.165 198.57 810.925 192.97 810.925 186.33V156.81C810.925 155.05 811.485 153.61 812.605 152.49C813.805 151.29 815.285 150.69 817.045 150.69C818.805 150.69 820.245 151.29 821.365 152.49C822.565 153.61 823.165 155.05 823.165 156.81V186.33C823.165 190.81 824.005 194.53 825.685 197.49C827.365 200.37 829.645 202.53 832.525 203.97C835.405 205.33 838.645 206.01 842.245 206.01C845.685 206.01 848.725 205.33 851.365 203.97C854.085 202.61 856.245 200.77 857.845 198.45C859.445 196.13 860.245 193.53 860.245 190.65H867.805C867.805 195.61 866.565 200.09 864.085 204.09C861.685 208.09 858.365 211.25 854.125 213.57C849.965 215.89 845.205 217.05 839.845 217.05ZM866.365 216.45C864.605 216.45 863.125 215.89 861.925 214.77C860.805 213.57 860.245 212.09 860.245 210.33V156.81C860.245 154.97 860.805 153.49 861.925 152.37C863.125 151.25 864.605 150.69 866.365 150.69C868.205 150.69 869.685 151.25 870.805 152.37C871.925 153.49 872.485 154.97 872.485 156.81V210.33C872.485 212.09 871.925 213.57 870.805 214.77C869.685 215.89 868.205 216.45 866.365 216.45ZM917.922 216.93C912.322 216.93 907.122 216.09 902.322 214.41C897.602 212.65 893.922 210.45 891.282 207.81C890.082 206.53 889.562 205.09 889.722 203.49C889.962 201.81 890.762 200.45 892.122 199.41C893.722 198.13 895.282 197.61 896.802 197.85C898.402 198.01 899.762 198.69 900.882 199.89C902.242 201.41 904.402 202.85 907.362 204.21C910.402 205.49 913.762 206.13 917.442 206.13C922.082 206.13 925.602 205.37 928.002 203.85C930.482 202.33 931.762 200.37 931.842 197.97C931.922 195.57 930.762 193.49 928.362 191.73C926.042 189.97 921.762 188.53 915.522 187.41C907.442 185.81 901.562 183.41 897.882 180.21C894.282 177.01 892.482 173.09 892.482 168.45C892.482 164.37 893.682 161.01 896.082 158.37C898.482 155.65 901.562 153.65 905.322 152.37C909.082 151.01 913.002 150.33 917.082 150.33C922.362 150.33 927.042 151.17 931.122 152.85C935.202 154.53 938.442 156.85 940.842 159.81C941.962 161.09 942.482 162.45 942.402 163.89C942.322 165.25 941.642 166.41 940.362 167.37C939.082 168.25 937.562 168.53 935.802 168.21C934.042 167.89 932.562 167.17 931.362 166.05C929.362 164.13 927.202 162.81 924.882 162.09C922.562 161.37 919.882 161.01 916.842 161.01C913.322 161.01 910.322 161.61 907.842 162.81C905.442 164.01 904.242 165.77 904.242 168.09C904.242 169.53 904.602 170.85 905.322 172.05C906.122 173.17 907.642 174.21 909.882 175.17C912.122 176.05 915.402 176.93 919.722 177.81C925.722 179.01 930.442 180.53 933.882 182.37C937.402 184.21 939.922 186.37 941.442 188.85C942.962 191.25 943.722 194.05 943.722 197.25C943.722 200.93 942.722 204.25 940.722 207.21C938.802 210.17 935.922 212.53 932.082 214.29C928.322 216.05 923.602 216.93 917.922 216.93ZM489 351.65C482.52 351.65 476.44 350.45 470.76 348.05C465.16 345.57 460.24 342.17 456 337.85C451.84 333.45 448.56 328.33 446.16 322.49C443.84 316.65 442.68 310.33 442.68 303.53C442.68 296.81 443.84 290.57 446.16 284.81C448.56 278.97 451.84 273.89 456 269.57C460.24 265.17 465.16 261.73 470.76 259.25C476.36 256.77 482.44 255.53 489 255.53C495.16 255.53 500.44 256.33 504.84 257.93C509.32 259.53 513.8 262.17 518.28 265.85C518.92 266.33 519.4 266.85 519.72 267.41C520.12 267.89 520.36 268.41 520.44 268.97C520.6 269.45 520.68 270.05 520.68 270.77C520.68 272.29 520.12 273.57 519 274.61C517.96 275.57 516.68 276.13 515.16 276.29C513.64 276.37 512.16 275.85 510.72 274.73C507.76 272.17 504.68 270.21 501.48 268.85C498.36 267.49 494.2 266.81 489 266.81C484.28 266.81 479.84 267.77 475.68 269.69C471.52 271.61 467.84 274.25 464.64 277.61C461.52 280.97 459.08 284.89 457.32 289.37C455.56 293.77 454.68 298.49 454.68 303.53C454.68 308.65 455.56 313.45 457.32 317.93C459.08 322.33 461.52 326.21 464.64 329.57C467.84 332.93 471.52 335.57 475.68 337.49C479.84 339.33 484.28 340.25 489 340.25C493.08 340.25 496.92 339.57 500.52 338.21C504.2 336.77 507.72 334.81 511.08 332.33C512.52 331.29 513.92 330.85 515.28 331.01C516.72 331.09 517.92 331.65 518.88 332.69C519.84 333.65 520.32 335.01 520.32 336.77C520.32 337.57 520.16 338.37 519.84 339.17C519.52 339.89 519.04 340.57 518.4 341.21C514.08 344.65 509.44 347.25 504.48 349.01C499.6 350.77 494.44 351.65 489 351.65ZM561.637 350.93C555.797 350.93 550.557 349.49 545.917 346.61C541.277 343.65 537.597 339.69 534.877 334.73C532.237 329.69 530.917 324.01 530.917 317.69C530.917 311.37 532.357 305.69 535.237 300.65C538.197 295.61 542.157 291.65 547.117 288.77C552.157 285.81 557.797 284.33 564.037 284.33C570.277 284.33 575.877 285.81 580.837 288.77C585.797 291.65 589.717 295.61 592.597 300.65C595.557 305.69 597.037 311.37 597.037 317.69H592.357C592.357 324.01 590.997 329.69 588.277 334.73C585.637 339.69 581.997 343.65 577.357 346.61C572.717 349.49 567.477 350.93 561.637 350.93ZM564.037 340.13C568.117 340.13 571.757 339.17 574.957 337.25C578.157 335.25 580.677 332.57 582.517 329.21C584.357 325.77 585.277 321.93 585.277 317.69C585.277 313.37 584.357 309.53 582.517 306.17C580.677 302.73 578.157 300.05 574.957 298.13C571.757 296.13 568.117 295.13 564.037 295.13C560.037 295.13 556.397 296.13 553.117 298.13C549.917 300.05 547.357 302.73 545.437 306.17C543.597 309.53 542.677 313.37 542.677 317.69C542.677 321.93 543.597 325.77 545.437 329.21C547.357 332.57 549.917 335.25 553.117 337.25C556.397 339.17 560.037 340.13 564.037 340.13ZM590.917 350.57C589.157 350.57 587.677 350.01 586.477 348.89C585.357 347.69 584.797 346.21 584.797 344.45V326.09L587.077 313.37L597.037 317.69V344.45C597.037 346.21 596.437 347.69 595.237 348.89C594.117 350.01 592.677 350.57 590.917 350.57ZM630.853 350.45C627.333 350.45 624.213 349.49 621.493 347.57C618.773 345.65 616.653 343.05 615.133 339.77C613.613 336.41 612.853 332.57 612.853 328.25V262.73C612.853 260.97 613.413 259.53 614.533 258.41C615.653 257.29 617.093 256.73 618.853 256.73C620.613 256.73 622.053 257.29 623.173 258.41C624.293 259.53 624.853 260.97 624.853 262.73V328.25C624.853 331.21 625.413 333.65 626.533 335.57C627.653 337.49 629.093 338.45 630.853 338.45H633.853C635.453 338.45 636.733 339.01 637.693 340.13C638.733 341.25 639.253 342.69 639.253 344.45C639.253 346.21 638.493 347.65 636.973 348.77C635.453 349.89 633.493 350.45 631.093 350.45H630.853ZM737.39 350.57C735.63 350.57 734.15 350.01 732.95 348.89C731.83 347.69 731.27 346.21 731.27 344.45V310.13C731.27 305.09 730.03 301.37 727.55 298.97C725.07 296.49 721.83 295.25 717.83 295.25C713.67 295.25 710.23 296.69 707.51 299.57C704.87 302.45 703.55 306.13 703.55 310.61H693.59C693.59 305.41 694.71 300.85 696.95 296.93C699.19 292.93 702.31 289.81 706.31 287.57C710.39 285.33 715.03 284.21 720.23 284.21C724.79 284.21 728.83 285.21 732.35 287.21C735.87 289.21 738.59 292.17 740.51 296.09C742.51 299.93 743.51 304.61 743.51 310.13V344.45C743.51 346.21 742.95 347.69 741.83 348.89C740.71 350.01 739.23 350.57 737.39 350.57ZM657.35 350.57C655.59 350.57 654.11 350.01 652.91 348.89C651.79 347.69 651.23 346.21 651.23 344.45V291.05C651.23 289.21 651.79 287.73 652.91 286.61C654.11 285.49 655.59 284.93 657.35 284.93C659.19 284.93 660.67 285.49 661.79 286.61C662.91 287.73 663.47 289.21 663.47 291.05V344.45C663.47 346.21 662.91 347.69 661.79 348.89C660.67 350.01 659.19 350.57 657.35 350.57ZM697.43 350.57C695.67 350.57 694.19 350.01 692.99 348.89C691.87 347.69 691.31 346.21 691.31 344.45V310.13C691.31 305.09 690.07 301.37 687.59 298.97C685.11 296.49 681.87 295.25 677.87 295.25C673.71 295.25 670.27 296.69 667.55 299.57C664.83 302.45 663.47 306.13 663.47 310.61H655.91C655.91 305.41 656.95 300.85 659.03 296.93C661.11 292.93 663.99 289.81 667.67 287.57C671.35 285.33 675.55 284.21 680.27 284.21C684.83 284.21 688.87 285.21 692.39 287.21C695.91 289.21 698.63 292.17 700.55 296.09C702.55 299.93 703.55 304.61 703.55 310.13V344.45C703.55 346.21 702.99 347.69 701.87 348.89C700.75 350.01 699.27 350.57 697.43 350.57Z"/>
</mask>
<path d="M489 217.65C482.52 217.65 476.44 216.45 470.76 214.05C465.16 211.57 460.24 208.17 456 203.85C451.84 199.45 448.56 194.33 446.16 188.49C443.84 182.65 442.68 176.33 442.68 169.53C442.68 162.81 443.84 156.57 446.16 150.81C448.56 144.97 451.84 139.89 456 135.57C460.24 131.17 465.16 127.73 470.76 125.25C476.36 122.77 482.44 121.53 489 121.53C495.16 121.53 500.44 122.33 504.84 123.93C509.32 125.53 513.8 128.17 518.28 131.85C518.92 132.33 519.4 132.85 519.72 133.41C520.12 133.89 520.36 134.41 520.44 134.97C520.6 135.45 520.68 136.05 520.68 136.77C520.68 138.29 520.12 139.57 519 140.61C517.96 141.57 516.68 142.13 515.16 142.29C513.64 142.37 512.16 141.85 510.72 140.73C507.76 138.17 504.68 136.21 501.48 134.85C498.36 133.49 494.2 132.81 489 132.81C484.28 132.81 479.84 133.77 475.68 135.69C471.52 137.61 467.84 140.25 464.64 143.61C461.52 146.97 459.08 150.89 457.32 155.37C455.56 159.77 454.68 164.49 454.68 169.53C454.68 174.65 455.56 179.45 457.32 183.93C459.08 188.33 461.52 192.21 464.64 195.57C467.84 198.93 471.52 201.57 475.68 203.49C479.84 205.33 484.28 206.25 489 206.25C493.08 206.25 496.92 205.57 500.52 204.21C504.2 202.77 507.72 200.81 511.08 198.33C512.52 197.29 513.92 196.85 515.28 197.01C516.72 197.09 517.92 197.65 518.88 198.69C519.84 199.65 520.32 201.01 520.32 202.77C520.32 203.57 520.16 204.37 519.84 205.17C519.52 205.89 519.04 206.57 518.4 207.21C514.08 210.65 509.44 213.25 504.48 215.01C499.6 216.77 494.44 217.65 489 217.65ZM561.637 216.93C555.797 216.93 550.557 215.49 545.917 212.61C541.277 209.65 537.597 205.69 534.877 200.73C532.237 195.69 530.917 190.01 530.917 183.69C530.917 177.37 532.357 171.69 535.237 166.65C538.197 161.61 542.157 157.65 547.117 154.77C552.157 151.81 557.797 150.33 564.037 150.33C570.277 150.33 575.877 151.81 580.837 154.77C585.797 157.65 589.717 161.61 592.597 166.65C595.557 171.69 597.037 177.37 597.037 183.69H592.357C592.357 190.01 590.997 195.69 588.277 200.73C585.637 205.69 581.997 209.65 577.357 212.61C572.717 215.49 567.477 216.93 561.637 216.93ZM564.037 206.13C568.117 206.13 571.757 205.17 574.957 203.25C578.157 201.25 580.677 198.57 582.517 195.21C584.357 191.77 585.277 187.93 585.277 183.69C585.277 179.37 584.357 175.53 582.517 172.17C580.677 168.73 578.157 166.05 574.957 164.13C571.757 162.13 568.117 161.13 564.037 161.13C560.037 161.13 556.397 162.13 553.117 164.13C549.917 166.05 547.357 168.73 545.437 172.17C543.597 175.53 542.677 179.37 542.677 183.69C542.677 187.93 543.597 191.77 545.437 195.21C547.357 198.57 549.917 201.25 553.117 203.25C556.397 205.17 560.037 206.13 564.037 206.13ZM590.917 216.57C589.157 216.57 587.677 216.01 586.477 214.89C585.357 213.69 584.797 212.21 584.797 210.45V192.09L587.077 179.37L597.037 183.69V210.45C597.037 212.21 596.437 213.69 595.237 214.89C594.117 216.01 592.677 216.57 590.917 216.57ZM701.413 216.57C699.653 216.57 698.173 216.01 696.973 214.89C695.853 213.69 695.293 212.21 695.293 210.45V176.13C695.293 171.09 694.053 167.37 691.573 164.97C689.093 162.49 685.853 161.25 681.853 161.25C677.693 161.25 674.253 162.69 671.533 165.57C668.893 168.45 667.573 172.13 667.573 176.61H657.613C657.613 171.41 658.733 166.85 660.973 162.93C663.213 158.93 666.333 155.81 670.333 153.57C674.413 151.33 679.053 150.21 684.253 150.21C688.813 150.21 692.853 151.21 696.373 153.21C699.893 155.21 702.613 158.17 704.533 162.09C706.533 165.93 707.533 170.61 707.533 176.13V210.45C707.533 212.21 706.973 213.69 705.853 214.89C704.733 216.01 703.253 216.57 701.413 216.57ZM621.373 216.57C619.613 216.57 618.133 216.01 616.933 214.89C615.813 213.69 615.253 212.21 615.253 210.45V157.05C615.253 155.21 615.813 153.73 616.933 152.61C618.133 151.49 619.613 150.93 621.373 150.93C623.213 150.93 624.693 151.49 625.813 152.61C626.933 153.73 627.493 155.21 627.493 157.05V210.45C627.493 212.21 626.933 213.69 625.813 214.89C624.693 216.01 623.213 216.57 621.373 216.57ZM661.453 216.57C659.693 216.57 658.213 216.01 657.013 214.89C655.893 213.69 655.333 212.21 655.333 210.45V176.13C655.333 171.09 654.093 167.37 651.613 164.97C649.133 162.49 645.893 161.25 641.893 161.25C637.733 161.25 634.293 162.69 631.573 165.57C628.853 168.45 627.493 172.13 627.493 176.61H619.933C619.933 171.41 620.973 166.85 623.053 162.93C625.133 158.93 628.013 155.81 631.693 153.57C635.373 151.33 639.573 150.21 644.293 150.21C648.853 150.21 652.893 151.21 656.413 153.21C659.933 155.21 662.653 158.17 664.573 162.09C666.573 165.93 667.573 170.61 667.573 176.13V210.45C667.573 212.21 667.013 213.69 665.893 214.89C664.773 216.01 663.293 216.57 661.453 216.57ZM733.99 244.53C732.23 244.53 730.75 243.93 729.55 242.73C728.43 241.61 727.87 240.17 727.87 238.41V183.69C727.95 177.37 729.43 171.69 732.31 166.65C735.19 161.61 739.11 157.65 744.07 154.77C749.03 151.81 754.63 150.33 760.87 150.33C767.19 150.33 772.83 151.81 777.79 154.77C782.75 157.65 786.67 161.61 789.55 166.65C792.51 171.69 793.99 177.37 793.99 183.69C793.99 190.01 792.63 195.69 789.91 200.73C787.27 205.69 783.63 209.65 778.99 212.61C774.35 215.49 769.11 216.93 763.27 216.93C758.55 216.93 754.19 215.97 750.19 214.05C746.27 212.05 742.91 209.37 740.11 206.01V238.41C740.11 240.17 739.55 241.61 738.43 242.73C737.31 243.93 735.83 244.53 733.99 244.53ZM760.87 206.13C764.95 206.13 768.59 205.17 771.79 203.25C774.99 201.25 777.51 198.57 779.35 195.21C781.27 191.77 782.23 187.93 782.23 183.69C782.23 179.37 781.27 175.53 779.35 172.17C777.51 168.73 774.99 166.05 771.79 164.13C768.59 162.13 764.95 161.13 760.87 161.13C756.87 161.13 753.23 162.13 749.95 164.13C746.75 166.05 744.23 168.73 742.39 172.17C740.55 175.53 739.63 179.37 739.63 183.69C739.63 187.93 740.55 191.77 742.39 195.21C744.23 198.57 746.75 201.25 749.95 203.25C753.23 205.17 756.87 206.13 760.87 206.13ZM839.845 217.05C834.325 217.05 829.365 215.89 824.965 213.57C820.645 211.17 817.205 207.69 814.645 203.13C812.165 198.57 810.925 192.97 810.925 186.33V156.81C810.925 155.05 811.485 153.61 812.605 152.49C813.805 151.29 815.285 150.69 817.045 150.69C818.805 150.69 820.245 151.29 821.365 152.49C822.565 153.61 823.165 155.05 823.165 156.81V186.33C823.165 190.81 824.005 194.53 825.685 197.49C827.365 200.37 829.645 202.53 832.525 203.97C835.405 205.33 838.645 206.01 842.245 206.01C845.685 206.01 848.725 205.33 851.365 203.97C854.085 202.61 856.245 200.77 857.845 198.45C859.445 196.13 860.245 193.53 860.245 190.65H867.805C867.805 195.61 866.565 200.09 864.085 204.09C861.685 208.09 858.365 211.25 854.125 213.57C849.965 215.89 845.205 217.05 839.845 217.05ZM866.365 216.45C864.605 216.45 863.125 215.89 861.925 214.77C860.805 213.57 860.245 212.09 860.245 210.33V156.81C860.245 154.97 860.805 153.49 861.925 152.37C863.125 151.25 864.605 150.69 866.365 150.69C868.205 150.69 869.685 151.25 870.805 152.37C871.925 153.49 872.485 154.97 872.485 156.81V210.33C872.485 212.09 871.925 213.57 870.805 214.77C869.685 215.89 868.205 216.45 866.365 216.45ZM917.922 216.93C912.322 216.93 907.122 216.09 902.322 214.41C897.602 212.65 893.922 210.45 891.282 207.81C890.082 206.53 889.562 205.09 889.722 203.49C889.962 201.81 890.762 200.45 892.122 199.41C893.722 198.13 895.282 197.61 896.802 197.85C898.402 198.01 899.762 198.69 900.882 199.89C902.242 201.41 904.402 202.85 907.362 204.21C910.402 205.49 913.762 206.13 917.442 206.13C922.082 206.13 925.602 205.37 928.002 203.85C930.482 202.33 931.762 200.37 931.842 197.97C931.922 195.57 930.762 193.49 928.362 191.73C926.042 189.97 921.762 188.53 915.522 187.41C907.442 185.81 901.562 183.41 897.882 180.21C894.282 177.01 892.482 173.09 892.482 168.45C892.482 164.37 893.682 161.01 896.082 158.37C898.482 155.65 901.562 153.65 905.322 152.37C909.082 151.01 913.002 150.33 917.082 150.33C922.362 150.33 927.042 151.17 931.122 152.85C935.202 154.53 938.442 156.85 940.842 159.81C941.962 161.09 942.482 162.45 942.402 163.89C942.322 165.25 941.642 166.41 940.362 167.37C939.082 168.25 937.562 168.53 935.802 168.21C934.042 167.89 932.562 167.17 931.362 166.05C929.362 164.13 927.202 162.81 924.882 162.09C922.562 161.37 919.882 161.01 916.842 161.01C913.322 161.01 910.322 161.61 907.842 162.81C905.442 164.01 904.242 165.77 904.242 168.09C904.242 169.53 904.602 170.85 905.322 172.05C906.122 173.17 907.642 174.21 909.882 175.17C912.122 176.05 915.402 176.93 919.722 177.81C925.722 179.01 930.442 180.53 933.882 182.37C937.402 184.21 939.922 186.37 941.442 188.85C942.962 191.25 943.722 194.05 943.722 197.25C943.722 200.93 942.722 204.25 940.722 207.21C938.802 210.17 935.922 212.53 932.082 214.29C928.322 216.05 923.602 216.93 917.922 216.93ZM489 351.65C482.52 351.65 476.44 350.45 470.76 348.05C465.16 345.57 460.24 342.17 456 337.85C451.84 333.45 448.56 328.33 446.16 322.49C443.84 316.65 442.68 310.33 442.68 303.53C442.68 296.81 443.84 290.57 446.16 284.81C448.56 278.97 451.84 273.89 456 269.57C460.24 265.17 465.16 261.73 470.76 259.25C476.36 256.77 482.44 255.53 489 255.53C495.16 255.53 500.44 256.33 504.84 257.93C509.32 259.53 513.8 262.17 518.28 265.85C518.92 266.33 519.4 266.85 519.72 267.41C520.12 267.89 520.36 268.41 520.44 268.97C520.6 269.45 520.68 270.05 520.68 270.77C520.68 272.29 520.12 273.57 519 274.61C517.96 275.57 516.68 276.13 515.16 276.29C513.64 276.37 512.16 275.85 510.72 274.73C507.76 272.17 504.68 270.21 501.48 268.85C498.36 267.49 494.2 266.81 489 266.81C484.28 266.81 479.84 267.77 475.68 269.69C471.52 271.61 467.84 274.25 464.64 277.61C461.52 280.97 459.08 284.89 457.32 289.37C455.56 293.77 454.68 298.49 454.68 303.53C454.68 308.65 455.56 313.45 457.32 317.93C459.08 322.33 461.52 326.21 464.64 329.57C467.84 332.93 471.52 335.57 475.68 337.49C479.84 339.33 484.28 340.25 489 340.25C493.08 340.25 496.92 339.57 500.52 338.21C504.2 336.77 507.72 334.81 511.08 332.33C512.52 331.29 513.92 330.85 515.28 331.01C516.72 331.09 517.92 331.65 518.88 332.69C519.84 333.65 520.32 335.01 520.32 336.77C520.32 337.57 520.16 338.37 519.84 339.17C519.52 339.89 519.04 340.57 518.4 341.21C514.08 344.65 509.44 347.25 504.48 349.01C499.6 350.77 494.44 351.65 489 351.65ZM561.637 350.93C555.797 350.93 550.557 349.49 545.917 346.61C541.277 343.65 537.597 339.69 534.877 334.73C532.237 329.69 530.917 324.01 530.917 317.69C530.917 311.37 532.357 305.69 535.237 300.65C538.197 295.61 542.157 291.65 547.117 288.77C552.157 285.81 557.797 284.33 564.037 284.33C570.277 284.33 575.877 285.81 580.837 288.77C585.797 291.65 589.717 295.61 592.597 300.65C595.557 305.69 597.037 311.37 597.037 317.69H592.357C592.357 324.01 590.997 329.69 588.277 334.73C585.637 339.69 581.997 343.65 577.357 346.61C572.717 349.49 567.477 350.93 561.637 350.93ZM564.037 340.13C568.117 340.13 571.757 339.17 574.957 337.25C578.157 335.25 580.677 332.57 582.517 329.21C584.357 325.77 585.277 321.93 585.277 317.69C585.277 313.37 584.357 309.53 582.517 306.17C580.677 302.73 578.157 300.05 574.957 298.13C571.757 296.13 568.117 295.13 564.037 295.13C560.037 295.13 556.397 296.13 553.117 298.13C549.917 300.05 547.357 302.73 545.437 306.17C543.597 309.53 542.677 313.37 542.677 317.69C542.677 321.93 543.597 325.77 545.437 329.21C547.357 332.57 549.917 335.25 553.117 337.25C556.397 339.17 560.037 340.13 564.037 340.13ZM590.917 350.57C589.157 350.57 587.677 350.01 586.477 348.89C585.357 347.69 584.797 346.21 584.797 344.45V326.09L587.077 313.37L597.037 317.69V344.45C597.037 346.21 596.437 347.69 595.237 348.89C594.117 350.01 592.677 350.57 590.917 350.57ZM630.853 350.45C627.333 350.45 624.213 349.49 621.493 347.57C618.773 345.65 616.653 343.05 615.133 339.77C613.613 336.41 612.853 332.57 612.853 328.25V262.73C612.853 260.97 613.413 259.53 614.533 258.41C615.653 257.29 617.093 256.73 618.853 256.73C620.613 256.73 622.053 257.29 623.173 258.41C624.293 259.53 624.853 260.97 624.853 262.73V328.25C624.853 331.21 625.413 333.65 626.533 335.57C627.653 337.49 629.093 338.45 630.853 338.45H633.853C635.453 338.45 636.733 339.01 637.693 340.13C638.733 341.25 639.253 342.69 639.253 344.45C639.253 346.21 638.493 347.65 636.973 348.77C635.453 349.89 633.493 350.45 631.093 350.45H630.853ZM737.39 350.57C735.63 350.57 734.15 350.01 732.95 348.89C731.83 347.69 731.27 346.21 731.27 344.45V310.13C731.27 305.09 730.03 301.37 727.55 298.97C725.07 296.49 721.83 295.25 717.83 295.25C713.67 295.25 710.23 296.69 707.51 299.57C704.87 302.45 703.55 306.13 703.55 310.61H693.59C693.59 305.41 694.71 300.85 696.95 296.93C699.19 292.93 702.31 289.81 706.31 287.57C710.39 285.33 715.03 284.21 720.23 284.21C724.79 284.21 728.83 285.21 732.35 287.21C735.87 289.21 738.59 292.17 740.51 296.09C742.51 299.93 743.51 304.61 743.51 310.13V344.45C743.51 346.21 742.95 347.69 741.83 348.89C740.71 350.01 739.23 350.57 737.39 350.57ZM657.35 350.57C655.59 350.57 654.11 350.01 652.91 348.89C651.79 347.69 651.23 346.21 651.23 344.45V291.05C651.23 289.21 651.79 287.73 652.91 286.61C654.11 285.49 655.59 284.93 657.35 284.93C659.19 284.93 660.67 285.49 661.79 286.61C662.91 287.73 663.47 289.21 663.47 291.05V344.45C663.47 346.21 662.91 347.69 661.79 348.89C660.67 350.01 659.19 350.57 657.35 350.57ZM697.43 350.57C695.67 350.57 694.19 350.01 692.99 348.89C691.87 347.69 691.31 346.21 691.31 344.45V310.13C691.31 305.09 690.07 301.37 687.59 298.97C685.11 296.49 681.87 295.25 677.87 295.25C673.71 295.25 670.27 296.69 667.55 299.57C664.83 302.45 663.47 306.13 663.47 310.61H655.91C655.91 305.41 656.95 300.85 659.03 296.93C661.11 292.93 663.99 289.81 667.67 287.57C671.35 285.33 675.55 284.21 680.27 284.21C684.83 284.21 688.87 285.21 692.39 287.21C695.91 289.21 698.63 292.17 700.55 296.09C702.55 299.93 703.55 304.61 703.55 310.13V344.45C703.55 346.21 702.99 347.69 701.87 348.89C700.75 350.01 699.27 350.57 697.43 350.57Z" fill="#F7F2FF"/>
<path d="M470.76 214.05L470.355 214.964L470.363 214.968L470.371 214.971L470.76 214.05ZM456 203.85L455.273 204.537L455.28 204.544L455.286 204.55L456 203.85ZM446.16 188.49L445.231 188.859L445.235 188.87L446.16 188.49ZM446.16 150.81L445.235 150.43L445.232 150.436L446.16 150.81ZM456 135.57L455.28 134.876L455.28 134.876L456 135.57ZM470.76 125.25L470.355 124.336V124.336L470.76 125.25ZM504.84 123.93L504.498 124.87L504.504 124.872L504.84 123.93ZM518.28 131.85L517.645 132.623L517.662 132.637L517.68 132.65L518.28 131.85ZM519.72 133.41L518.852 133.906L518.895 133.983L518.952 134.05L519.72 133.41ZM520.44 134.97L519.45 135.111L519.463 135.201L519.491 135.286L520.44 134.97ZM519 140.61L519.678 141.345L519.68 141.343L519 140.61ZM515.16 142.29L515.213 143.289L515.239 143.287L515.265 143.285L515.16 142.29ZM510.72 140.73L510.066 141.486L510.086 141.503L510.106 141.519L510.72 140.73ZM501.48 134.85L501.08 135.767L501.089 135.77L501.48 134.85ZM464.64 143.61L463.916 142.92L463.907 142.93L464.64 143.61ZM457.32 155.37L458.248 155.741L458.251 155.736L457.32 155.37ZM457.32 183.93L456.389 184.296L456.392 184.301L457.32 183.93ZM464.64 195.57L463.907 196.251L463.916 196.26L464.64 195.57ZM475.68 203.49L475.261 204.398L475.268 204.401L475.275 204.405L475.68 203.49ZM500.52 204.21L500.873 205.146L500.884 205.141L500.52 204.21ZM511.08 198.33L510.494 197.519L510.486 197.525L511.08 198.33ZM515.28 197.01L515.163 198.003L515.194 198.007L515.225 198.008L515.28 197.01ZM518.88 198.69L518.145 199.368L518.159 199.383L518.173 199.397L518.88 198.69ZM519.84 205.17L520.754 205.576L520.761 205.559L520.768 205.541L519.84 205.17ZM518.4 207.21L519.023 207.992L519.067 207.957L519.107 207.917L518.4 207.21ZM504.48 215.01L504.146 214.068L504.141 214.069L504.48 215.01ZM489 217.65V216.65C482.647 216.65 476.7 215.474 471.149 213.129L470.76 214.05L470.371 214.971C476.18 217.426 482.393 218.65 489 218.65V217.65ZM470.76 214.05L471.165 213.136C465.679 210.706 460.864 207.378 456.714 203.15L456 203.85L455.286 204.55C459.616 208.962 464.641 212.434 470.355 214.964L470.76 214.05ZM456 203.85L456.727 203.163C452.655 198.856 449.44 193.841 447.085 188.11L446.16 188.49L445.235 188.87C447.68 194.819 451.025 200.044 455.273 204.537L456 203.85ZM446.16 188.49L447.089 188.121C444.82 182.408 443.68 176.214 443.68 169.53H442.68H441.68C441.68 176.446 442.86 182.892 445.231 188.859L446.16 188.49ZM442.68 169.53H443.68C443.68 162.927 444.819 156.815 447.088 151.184L446.16 150.81L445.232 150.436C442.861 156.325 441.68 162.693 441.68 169.53H442.68ZM446.16 150.81L447.085 151.19C449.44 145.46 452.652 140.488 456.72 136.264L456 135.57L455.28 134.876C451.028 139.292 447.68 144.48 445.235 150.43L446.16 150.81ZM456 135.57L456.72 136.264C460.87 131.957 465.683 128.592 471.165 126.164L470.76 125.25L470.355 124.336C464.637 126.868 459.61 130.383 455.28 134.876L456 135.57ZM470.76 125.25L471.165 126.164C476.629 123.745 482.569 122.53 489 122.53V121.53V120.53C482.311 120.53 476.091 121.795 470.355 124.336L470.76 125.25ZM489 121.53V122.53C495.078 122.53 500.236 123.32 504.498 124.87L504.84 123.93L505.182 122.99C500.644 121.34 495.242 120.53 489 120.53V121.53ZM504.84 123.93L504.504 124.872C508.854 126.426 513.235 129 517.645 132.623L518.28 131.85L518.915 131.077C514.365 127.34 509.786 124.634 505.176 122.988L504.84 123.93ZM518.28 131.85L517.68 132.65C518.236 133.067 518.614 133.49 518.852 133.906L519.72 133.41L520.588 132.914C520.186 132.21 519.604 131.593 518.88 131.05L518.28 131.85ZM519.72 133.41L518.952 134.05C519.246 134.403 519.399 134.754 519.45 135.111L520.44 134.97L521.43 134.829C521.321 134.066 520.994 133.377 520.488 132.77L519.72 133.41ZM520.44 134.97L519.491 135.286C519.606 135.631 519.68 136.116 519.68 136.77H520.68H521.68C521.68 135.984 521.594 135.269 521.389 134.654L520.44 134.97ZM520.68 136.77H519.68C519.68 138.01 519.237 139.025 518.32 139.877L519 140.61L519.68 141.343C521.003 140.115 521.68 138.57 521.68 136.77H520.68ZM519 140.61L518.322 139.875C517.453 140.677 516.379 141.156 515.055 141.296L515.16 142.29L515.265 143.285C516.981 143.104 518.467 142.463 519.678 141.345L519 140.61ZM515.16 142.29L515.107 141.291C513.873 141.356 512.624 140.944 511.334 139.941L510.72 140.73L510.106 141.519C511.696 142.756 513.407 143.384 515.213 143.289L515.16 142.29ZM510.72 140.73L511.374 139.974C508.345 137.354 505.178 135.335 501.871 133.93L501.48 134.85L501.089 135.77C504.182 137.085 507.175 138.986 510.066 141.486L510.72 140.73ZM501.48 134.85L501.88 133.933C498.585 132.497 494.272 131.81 489 131.81V132.81V133.81C494.128 133.81 498.135 134.483 501.08 135.767L501.48 134.85ZM489 132.81V131.81C484.14 131.81 479.556 132.8 475.261 134.782L475.68 135.69L476.099 136.598C480.124 134.74 484.42 133.81 489 133.81V132.81ZM475.68 135.69L475.261 134.782C470.985 136.756 467.202 139.47 463.916 142.92L464.64 143.61L465.364 144.3C468.478 141.03 472.055 138.464 476.099 136.598L475.68 135.69ZM464.64 143.61L463.907 142.93C460.698 146.386 458.193 150.414 456.389 155.004L457.32 155.37L458.251 155.736C459.967 151.366 462.342 147.554 465.373 144.29L464.64 143.61ZM457.32 155.37L456.392 154.999C454.581 159.524 453.68 164.371 453.68 169.53H454.68H455.68C455.68 164.609 456.539 160.016 458.248 155.741L457.32 155.37ZM454.68 169.53H453.68C453.68 174.767 454.581 179.692 456.389 184.296L457.32 183.93L458.251 183.564C456.539 179.208 455.68 174.533 455.68 169.53H454.68ZM457.32 183.93L456.392 184.301C458.196 188.812 460.701 192.797 463.907 196.25L464.64 195.57L465.373 194.89C462.339 191.623 459.964 187.848 458.248 183.559L457.32 183.93ZM464.64 195.57L463.916 196.26C467.202 199.71 470.985 202.424 475.261 204.398L475.68 203.49L476.099 202.582C472.055 200.716 468.478 198.15 465.364 194.88L464.64 195.57ZM475.68 203.49L475.275 204.405C479.568 206.303 484.146 207.25 489 207.25V206.25V205.25C484.414 205.25 480.112 204.357 476.085 202.575L475.68 203.49ZM489 206.25V207.25C493.193 207.25 497.154 206.551 500.873 205.145L500.52 204.21L500.167 203.275C496.686 204.589 492.967 205.25 489 205.25V206.25ZM500.52 204.21L500.884 205.141C504.651 203.668 508.247 201.664 511.674 199.135L511.08 198.33L510.486 197.525C507.193 199.956 503.749 201.873 500.156 203.279L500.52 204.21ZM511.08 198.33L511.665 199.141C512.965 198.202 514.119 197.88 515.163 198.003L515.28 197.01L515.397 196.017C513.721 195.82 512.075 196.378 510.495 197.519L511.08 198.33ZM515.28 197.01L515.225 198.008C516.411 198.074 517.365 198.523 518.145 199.368L518.88 198.69L519.615 198.012C518.475 196.777 517.029 196.106 515.335 196.012L515.28 197.01ZM518.88 198.69L518.173 199.397C518.894 200.119 519.32 201.193 519.32 202.77H520.32H521.32C521.32 200.827 520.786 199.181 519.587 197.983L518.88 198.69ZM520.32 202.77H519.32C519.32 203.433 519.188 204.108 518.912 204.799L519.84 205.17L520.768 205.541C521.132 204.632 521.32 203.707 521.32 202.77H520.32ZM519.84 205.17L518.926 204.764C518.663 205.356 518.259 205.937 517.693 206.503L518.4 207.21L519.107 207.917C519.821 207.203 520.377 206.424 520.754 205.576L519.84 205.17ZM518.4 207.21L517.777 206.428C513.539 209.802 508.996 212.346 504.146 214.068L504.48 215.01L504.814 215.952C509.884 214.154 514.621 211.498 519.023 207.992L518.4 207.21ZM504.48 215.01L504.141 214.069C499.375 215.788 494.33 216.65 489 216.65V217.65V218.65C494.55 218.65 499.825 217.752 504.819 215.951L504.48 215.01ZM545.917 212.61L545.379 213.453L545.389 213.46L545.917 212.61ZM534.877 200.73L533.991 201.194L533.995 201.202L534 201.211L534.877 200.73ZM535.237 166.65L534.374 166.144L534.368 166.154L535.237 166.65ZM547.117 154.77L547.619 155.635L547.623 155.632L547.117 154.77ZM580.837 154.77L580.324 155.629L580.334 155.635L580.837 154.77ZM592.597 166.65L591.728 167.146L591.734 167.156L592.597 166.65ZM597.037 183.69V184.69H598.037V183.69H597.037ZM592.357 183.69V182.69H591.357V183.69H592.357ZM588.277 200.73L587.397 200.255L587.394 200.26L588.277 200.73ZM577.357 212.61L577.884 213.46L577.894 213.453L577.357 212.61ZM574.957 203.25L575.471 204.108L575.479 204.103L575.487 204.098L574.957 203.25ZM582.517 195.21L583.394 195.69L583.398 195.682L582.517 195.21ZM582.517 172.17L581.635 172.642L581.639 172.65L582.517 172.17ZM574.957 164.13L574.427 164.978L574.434 164.983L574.442 164.988L574.957 164.13ZM553.117 164.13L553.631 164.988L553.637 164.984L553.117 164.13ZM545.437 172.17L544.563 171.683L544.559 171.69L545.437 172.17ZM545.437 195.21L544.555 195.682L544.561 195.694L544.568 195.706L545.437 195.21ZM553.117 203.25L552.587 204.098L552.599 204.106L552.611 204.113L553.117 203.25ZM586.477 214.89L585.746 215.572L585.769 215.598L585.794 215.621L586.477 214.89ZM584.797 192.09L583.812 191.914L583.797 192.001V192.09H584.797ZM587.077 179.37L587.474 178.453L586.315 177.95L586.092 179.194L587.077 179.37ZM597.037 183.69H598.037V183.034L597.434 182.773L597.037 183.69ZM595.237 214.89L595.944 215.597V215.597L595.237 214.89ZM561.637 216.93V215.93C555.969 215.93 550.915 214.535 546.444 211.76L545.917 212.61L545.389 213.46C550.199 216.445 555.624 217.93 561.637 217.93V216.93ZM545.917 212.61L546.454 211.767C541.96 208.9 538.395 205.066 535.753 200.249L534.877 200.73L534 201.211C536.798 206.314 540.593 210.4 545.379 213.453L545.917 212.61ZM534.877 200.73L535.762 200.266C533.205 195.384 531.917 189.867 531.917 183.69H530.917H529.917C529.917 190.153 531.268 195.996 533.991 201.194L534.877 200.73ZM530.917 183.69H531.917C531.917 177.528 533.319 172.022 536.105 167.146L535.237 166.65L534.368 166.154C531.394 171.358 529.917 177.212 529.917 183.69H530.917ZM535.237 166.65L536.099 167.156C538.973 162.262 542.811 158.427 547.619 155.635L547.117 154.77L546.614 153.905C541.503 156.873 537.42 160.958 534.374 166.144L535.237 166.65ZM547.117 154.77L547.623 155.632C552.499 152.769 557.962 151.33 564.037 151.33V150.33V149.33C557.631 149.33 551.814 150.851 546.61 153.908L547.117 154.77ZM564.037 150.33V151.33C570.111 151.33 575.531 152.769 580.324 155.629L580.837 154.77L581.349 153.911C576.222 150.851 570.442 149.33 564.037 149.33V150.33ZM580.837 154.77L580.334 155.635C585.14 158.425 588.935 162.257 591.728 167.146L592.597 166.65L593.465 166.154C590.499 160.963 586.453 156.875 581.339 153.905L580.837 154.77ZM592.597 166.65L591.734 167.156C594.597 172.03 596.037 177.533 596.037 183.69H597.037H598.037C598.037 177.207 596.516 171.35 593.459 166.144L592.597 166.65ZM597.037 183.69V182.69H592.357V183.69V184.69H597.037V183.69ZM592.357 183.69H591.357C591.357 189.862 590.03 195.376 587.397 200.255L588.277 200.73L589.157 201.205C591.963 196.004 593.357 190.158 593.357 183.69H592.357ZM588.277 200.73L587.394 200.26C584.833 205.071 581.31 208.902 576.819 211.767L577.357 212.61L577.894 213.453C582.683 210.398 586.44 206.309 589.159 201.2L588.277 200.73ZM577.357 212.61L576.829 211.76C572.359 214.535 567.304 215.93 561.637 215.93V216.93V217.93C567.649 217.93 573.075 216.445 577.884 213.46L577.357 212.61ZM564.037 206.13V207.13C568.28 207.13 572.101 206.129 575.471 204.108L574.957 203.25L574.442 202.393C571.412 204.211 567.953 205.13 564.037 205.13V206.13ZM574.957 203.25L575.487 204.098C578.834 202.006 581.473 199.198 583.394 195.69L582.517 195.21L581.639 194.73C579.88 197.942 577.479 200.494 574.427 202.402L574.957 203.25ZM582.517 195.21L583.398 195.682C585.323 192.084 586.277 188.08 586.277 183.69H585.277H584.277C584.277 187.78 583.391 191.456 581.635 194.738L582.517 195.21ZM585.277 183.69H586.277C586.277 179.224 585.324 175.215 583.394 171.69L582.517 172.17L581.639 172.65C583.389 175.845 584.277 179.516 584.277 183.69H585.277ZM582.517 172.17L583.398 171.698C581.477 168.106 578.833 165.29 575.471 163.273L574.957 164.13L574.442 164.988C577.48 166.81 579.876 169.354 581.635 172.642L582.517 172.17ZM574.957 164.13L575.487 163.282C572.115 161.175 568.288 160.13 564.037 160.13V161.13V162.13C567.945 162.13 571.398 163.085 574.427 164.978L574.957 164.13ZM564.037 161.13V160.13C559.861 160.13 556.039 161.177 552.596 163.276L553.117 164.13L553.637 164.984C556.754 163.083 560.212 162.13 564.037 162.13V161.13ZM553.117 164.13L552.602 163.273C549.244 165.287 546.564 168.099 544.563 171.683L545.437 172.17L546.31 172.657C548.15 169.361 550.589 166.813 553.631 164.988L553.117 164.13ZM545.437 172.17L544.559 171.69C542.629 175.215 541.677 179.224 541.677 183.69H542.677H543.677C543.677 179.516 544.564 175.845 546.314 172.65L545.437 172.17ZM542.677 183.69H541.677C541.677 188.08 542.631 192.084 544.555 195.682L545.437 195.21L546.318 194.738C544.563 191.456 543.677 187.78 543.677 183.69H542.677ZM545.437 195.21L544.568 195.706C546.568 199.206 549.243 202.008 552.587 204.098L553.117 203.25L553.647 202.402C550.59 200.492 548.145 197.934 546.305 194.714L545.437 195.21ZM553.117 203.25L552.611 204.113C556.053 206.128 559.869 207.13 564.037 207.13V206.13V205.13C560.204 205.13 556.74 204.213 553.622 202.387L553.117 203.25ZM590.917 216.57V215.57C589.39 215.57 588.16 215.093 587.159 214.159L586.477 214.89L585.794 215.621C587.194 216.927 588.923 217.57 590.917 217.57V216.57ZM586.477 214.89L587.208 214.208C586.274 213.207 585.797 211.977 585.797 210.45H584.797H583.797C583.797 212.443 584.439 214.173 585.746 215.572L586.477 214.89ZM584.797 210.45H585.797V192.09H584.797H583.797V210.45H584.797ZM584.797 192.09L585.781 192.266L588.061 179.546L587.077 179.37L586.092 179.194L583.812 191.914L584.797 192.09ZM587.077 179.37L586.679 180.287L596.639 184.607L597.037 183.69L597.434 182.773L587.474 178.453L587.077 179.37ZM597.037 183.69H596.037V210.45H597.037H598.037V183.69H597.037ZM597.037 210.45H596.037C596.037 211.956 595.534 213.178 594.529 214.183L595.237 214.89L595.944 215.597C597.339 214.202 598.037 212.464 598.037 210.45H597.037ZM595.237 214.89L594.529 214.183C593.619 215.094 592.444 215.57 590.917 215.57V216.57V217.57C592.909 217.57 594.614 216.926 595.944 215.597L595.237 214.89ZM696.973 214.89L696.242 215.572L696.266 215.598L696.291 215.621L696.973 214.89ZM691.573 164.97L690.866 165.677L690.872 165.683L690.878 165.689L691.573 164.97ZM671.533 165.57L670.806 164.883L670.801 164.889L670.796 164.894L671.533 165.57ZM667.573 176.61V177.61H668.573V176.61H667.573ZM657.613 176.61H656.613V177.61H657.613V176.61ZM660.973 162.93L661.841 163.426L661.846 163.419L660.973 162.93ZM670.333 153.57L669.852 152.693L669.845 152.698L670.333 153.57ZM696.373 153.21L695.879 154.079V154.079L696.373 153.21ZM704.533 162.09L703.635 162.53L703.641 162.541L703.646 162.552L704.533 162.09ZM705.853 214.89L706.56 215.597L706.572 215.585L706.584 215.572L705.853 214.89ZM616.933 214.89L616.202 215.572L616.226 215.598L616.251 215.621L616.933 214.89ZM616.933 152.61L616.251 151.879L616.238 151.891L616.226 151.903L616.933 152.61ZM625.813 152.61L626.52 151.903L625.813 152.61ZM625.813 214.89L626.52 215.597L626.532 215.585L626.544 215.572L625.813 214.89ZM657.013 214.89L656.282 215.572L656.306 215.598L656.331 215.621L657.013 214.89ZM651.613 164.97L650.906 165.677L650.912 165.683L650.918 165.689L651.613 164.97ZM631.573 165.57L630.846 164.883V164.883L631.573 165.57ZM627.493 176.61V177.61H628.493V176.61H627.493ZM619.933 176.61H618.933V177.61H619.933V176.61ZM623.053 162.93L623.937 163.399L623.94 163.391L623.053 162.93ZM631.693 153.57L631.173 152.716V152.716L631.693 153.57ZM656.413 153.21L655.919 154.079H655.919L656.413 153.21ZM664.573 162.09L663.675 162.53L663.681 162.541L663.686 162.552L664.573 162.09ZM665.893 214.89L666.6 215.597L666.612 215.585L666.624 215.572L665.893 214.89ZM701.413 216.57V215.57C699.886 215.57 698.656 215.093 697.655 214.159L696.973 214.89L696.291 215.621C697.69 216.927 699.42 217.57 701.413 217.57V216.57ZM696.973 214.89L697.704 214.208C696.77 213.207 696.293 211.977 696.293 210.45H695.293H694.293C694.293 212.443 694.936 214.173 696.242 215.572L696.973 214.89ZM695.293 210.45H696.293V176.13H695.293H694.293V210.45H695.293ZM695.293 176.13H696.293C696.293 170.944 695.018 166.912 692.269 164.251L691.573 164.97L690.878 165.689C693.088 167.828 694.293 171.236 694.293 176.13H695.293ZM691.573 164.97L692.28 164.263C689.586 161.569 686.078 160.25 681.853 160.25V161.25V162.25C685.628 162.25 688.6 163.411 690.866 165.677L691.573 164.97ZM681.853 161.25V160.25C677.434 160.25 673.725 161.792 670.806 164.883L671.533 165.57L672.26 166.257C674.781 163.588 677.953 162.25 681.853 162.25V161.25ZM671.533 165.57L670.796 164.894C667.962 167.986 666.573 171.919 666.573 176.61H667.573H668.573C668.573 172.341 669.824 168.914 672.27 166.246L671.533 165.57ZM667.573 176.61V175.61H657.613V176.61V177.61H667.573V176.61ZM657.613 176.61H658.613C658.613 171.557 659.7 167.173 661.841 163.426L660.973 162.93L660.105 162.434C657.766 166.527 656.613 171.263 656.613 176.61H657.613ZM660.973 162.93L661.846 163.419C663.996 159.58 666.983 156.592 670.822 154.443L670.333 153.57L669.845 152.698C665.684 155.028 662.431 158.28 660.101 162.441L660.973 162.93ZM670.333 153.57L670.814 154.447C674.73 152.297 679.201 151.21 684.253 151.21V150.21V149.21C678.905 149.21 674.096 150.363 669.852 152.693L670.333 153.57ZM684.253 150.21V151.21C688.662 151.21 692.528 152.175 695.879 154.079L696.373 153.21L696.867 152.341C693.178 150.245 688.964 149.21 684.253 149.21V150.21ZM696.373 153.21L695.879 154.079C699.211 155.972 701.796 158.776 703.635 162.53L704.533 162.09L705.431 161.65C703.43 157.564 700.576 154.448 696.867 152.341L696.373 153.21ZM704.533 162.09L703.646 162.552C705.554 166.215 706.533 170.728 706.533 176.13H707.533H708.533C708.533 170.492 707.512 165.645 705.42 161.628L704.533 162.09ZM707.533 176.13H706.533V210.45H707.533H708.533V176.13H707.533ZM707.533 210.45H706.533C706.533 211.977 706.056 213.207 705.122 214.208L705.853 214.89L706.584 215.572C707.89 214.173 708.533 212.443 708.533 210.45H707.533ZM705.853 214.89L705.146 214.183C704.244 215.085 703.034 215.57 701.413 215.57V216.57V217.57C703.472 217.57 705.222 216.935 706.56 215.597L705.853 214.89ZM621.373 216.57V215.57C619.846 215.57 618.616 215.093 617.615 214.159L616.933 214.89L616.251 215.621C617.65 216.927 619.38 217.57 621.373 217.57V216.57ZM616.933 214.89L617.664 214.208C616.73 213.207 616.253 211.977 616.253 210.45H615.253H614.253C614.253 212.443 614.896 214.173 616.202 215.572L616.933 214.89ZM615.253 210.45H616.253V157.05H615.253H614.253V210.45H615.253ZM615.253 157.05H616.253C616.253 155.429 616.738 154.219 617.64 153.317L616.933 152.61L616.226 151.903C614.888 153.241 614.253 154.991 614.253 157.05H615.253ZM616.933 152.61L617.615 153.341C618.616 152.407 619.846 151.93 621.373 151.93V150.93V149.93C619.38 149.93 617.65 150.573 616.251 151.879L616.933 152.61ZM621.373 150.93V151.93C622.994 151.93 624.204 152.415 625.106 153.317L625.813 152.61L626.52 151.903C625.182 150.565 623.432 149.93 621.373 149.93V150.93ZM625.813 152.61L625.106 153.317C626.008 154.219 626.493 155.429 626.493 157.05H627.493H628.493C628.493 154.991 627.858 153.241 626.52 151.903L625.813 152.61ZM627.493 157.05H626.493V210.45H627.493H628.493V157.05H627.493ZM627.493 210.45H626.493C626.493 211.977 626.016 213.207 625.082 214.208L625.813 214.89L626.544 215.572C627.85 214.173 628.493 212.443 628.493 210.45H627.493ZM625.813 214.89L625.106 214.183C624.204 215.085 622.994 215.57 621.373 215.57V216.57V217.57C623.432 217.57 625.182 216.935 626.52 215.597L625.813 214.89ZM661.453 216.57V215.57C659.926 215.57 658.696 215.093 657.695 214.159L657.013 214.89L656.331 215.621C657.73 216.927 659.46 217.57 661.453 217.57V216.57ZM657.013 214.89L657.744 214.208C656.81 213.207 656.333 211.977 656.333 210.45H655.333H654.333C654.333 212.443 654.976 214.173 656.282 215.572L657.013 214.89ZM655.333 210.45H656.333V176.13H655.333H654.333V210.45H655.333ZM655.333 176.13H656.333C656.333 170.944 655.058 166.912 652.309 164.251L651.613 164.97L650.918 165.689C653.128 167.828 654.333 171.236 654.333 176.13H655.333ZM651.613 164.97L652.32 164.263C649.626 161.569 646.118 160.25 641.893 160.25V161.25V162.25C645.668 162.25 648.64 163.411 650.906 165.677L651.613 164.97ZM641.893 161.25V160.25C637.473 160.25 633.765 161.792 630.846 164.883L631.573 165.57L632.3 166.257C634.821 163.588 637.993 162.25 641.893 162.25V161.25ZM631.573 165.57L630.846 164.883C627.927 167.974 626.493 171.911 626.493 176.61H627.493H628.493C628.493 172.349 629.779 168.926 632.3 166.257L631.573 165.57ZM627.493 176.61V175.61H619.933V176.61V177.61H627.493V176.61ZM619.933 176.61H620.933C620.933 171.545 621.945 167.151 623.936 163.399L623.053 162.93L622.17 162.461C620.001 166.549 618.933 171.275 618.933 176.61H619.933ZM623.053 162.93L623.94 163.391C625.94 159.546 628.696 156.565 632.213 154.424L631.693 153.57L631.173 152.716C627.33 155.055 624.326 158.315 622.166 162.469L623.053 162.93ZM631.693 153.57L632.213 154.424C635.722 152.289 639.738 151.21 644.293 151.21V150.21V149.21C639.408 149.21 635.025 150.371 631.173 152.716L631.693 153.57ZM644.293 150.21V151.21C648.702 151.21 652.568 152.175 655.919 154.079L656.413 153.21L656.907 152.341C653.218 150.245 649.004 149.21 644.293 149.21V150.21ZM656.413 153.21L655.919 154.079C659.25 155.972 661.836 158.776 663.675 162.53L664.573 162.09L665.471 161.65C663.47 157.564 660.616 154.448 656.907 152.341L656.413 153.21ZM664.573 162.09L663.686 162.552C665.594 166.215 666.573 170.728 666.573 176.13H667.573H668.573C668.573 170.492 667.552 165.645 665.46 161.628L664.573 162.09ZM667.573 176.13H666.573V210.45H667.573H668.573V176.13H667.573ZM667.573 210.45H666.573C666.573 211.977 666.096 213.207 665.162 214.208L665.893 214.89L666.624 215.572C667.93 214.173 668.573 212.443 668.573 210.45H667.573ZM665.893 214.89L665.186 214.183C664.284 215.085 663.074 215.57 661.453 215.57V216.57V217.57C663.512 217.57 665.262 216.935 666.6 215.597L665.893 214.89ZM727.87 183.69L726.87 183.677V183.69H727.87ZM744.07 154.77L744.572 155.635L744.583 155.629L744.07 154.77ZM777.79 154.77L777.278 155.629L777.288 155.635L777.79 154.77ZM789.55 166.65L788.682 167.146L788.688 167.156L789.55 166.65ZM789.91 200.73L789.03 200.255L789.028 200.26L789.91 200.73ZM778.99 212.61L779.518 213.46L779.528 213.453L778.99 212.61ZM750.19 214.05L749.736 214.941L749.747 214.946L749.758 214.952L750.19 214.05ZM740.11 206.01L740.879 205.37L739.11 203.248V206.01H740.11ZM738.43 242.73L737.723 242.023L737.711 242.035L737.699 242.048L738.43 242.73ZM771.79 203.25L772.305 204.108L772.313 204.103L772.32 204.098L771.79 203.25ZM779.35 195.21L778.477 194.723L778.473 194.73L779.35 195.21ZM779.35 172.17L778.469 172.642L778.475 172.654L778.482 172.666L779.35 172.17ZM771.79 164.13L771.26 164.978L771.268 164.983L771.276 164.988L771.79 164.13ZM749.95 164.13L750.465 164.988L750.471 164.984L749.95 164.13ZM742.39 172.17L743.267 172.65L743.272 172.642L742.39 172.17ZM742.39 195.21L741.508 195.682L741.513 195.69L742.39 195.21ZM749.95 203.25L749.42 204.098L749.433 204.106L749.445 204.113L749.95 203.25ZM733.99 244.53V243.53C732.485 243.53 731.262 243.028 730.257 242.023L729.55 242.73L728.843 243.437C730.238 244.832 731.976 245.53 733.99 245.53V244.53ZM729.55 242.73L730.257 242.023C729.347 241.112 728.87 239.937 728.87 238.41H727.87H726.87C726.87 240.403 727.514 242.108 728.843 243.437L729.55 242.73ZM727.87 238.41H728.87V183.69H727.87H726.87V238.41H727.87ZM727.87 183.69L728.87 183.703C728.948 177.537 730.39 172.026 733.179 167.146L732.31 166.65L731.442 166.154C728.47 171.354 726.952 177.203 726.87 183.677L727.87 183.69ZM732.31 166.65L733.179 167.146C735.972 162.257 739.767 158.425 744.572 155.635L744.07 154.77L743.568 153.905C738.454 156.875 734.408 160.963 731.442 166.154L732.31 166.65ZM744.07 154.77L744.583 155.629C749.375 152.769 754.796 151.33 760.87 151.33V150.33V149.33C754.465 149.33 748.685 150.851 743.558 153.911L744.07 154.77ZM760.87 150.33V151.33C767.027 151.33 772.487 152.77 777.278 155.629L777.79 154.77L778.303 153.911C773.173 150.85 767.353 149.33 760.87 149.33V150.33ZM777.79 154.77L777.288 155.635C782.094 158.425 785.888 162.257 788.682 167.146L789.55 166.65L790.419 166.154C787.452 160.963 783.407 156.875 778.292 153.905L777.79 154.77ZM789.55 166.65L788.688 167.156C791.551 172.03 792.99 177.533 792.99 183.69H793.99H794.99C794.99 177.207 793.47 171.35 790.413 166.144L789.55 166.65ZM793.99 183.69H792.99C792.99 189.862 791.664 195.376 789.03 200.255L789.91 200.73L790.79 201.205C793.597 196.004 794.99 190.158 794.99 183.69H793.99ZM789.91 200.73L789.028 200.26C786.467 205.071 782.944 208.902 778.453 211.767L778.99 212.61L779.528 213.453C784.316 210.398 788.074 206.309 790.793 201.2L789.91 200.73ZM778.99 212.61L778.463 211.76C773.992 214.535 768.937 215.93 763.27 215.93V216.93V217.93C769.283 217.93 774.708 216.445 779.518 213.46L778.99 212.61ZM763.27 216.93V215.93C758.69 215.93 754.479 215 750.623 213.148L750.19 214.05L749.758 214.952C753.901 216.94 758.41 217.93 763.27 217.93V216.93ZM750.19 214.05L750.645 213.159C746.844 211.22 743.591 208.625 740.879 205.37L740.11 206.01L739.342 206.65C742.229 210.115 745.696 212.88 749.736 214.941L750.19 214.05ZM740.11 206.01H739.11V238.41H740.11H741.11V206.01H740.11ZM740.11 238.41H739.11C739.11 239.937 738.634 241.112 737.723 242.023L738.43 242.73L739.137 243.437C740.467 242.108 741.11 240.403 741.11 238.41H740.11ZM738.43 242.73L737.699 242.048C736.792 243.019 735.59 243.53 733.99 243.53V244.53V245.53C736.07 245.53 737.828 244.841 739.161 243.412L738.43 242.73ZM760.87 206.13V207.13C765.114 207.13 768.935 206.129 772.305 204.108L771.79 203.25L771.276 202.393C768.246 204.211 764.787 205.13 760.87 205.13V206.13ZM771.79 203.25L772.32 204.098C775.668 202.006 778.306 199.198 780.227 195.69L779.35 195.21L778.473 194.73C776.714 197.942 774.313 200.494 771.26 202.402L771.79 203.25ZM779.35 195.21L780.224 195.697C782.233 192.097 783.23 188.087 783.23 183.69H782.23H781.23C781.23 187.773 780.308 191.443 778.477 194.723L779.35 195.21ZM782.23 183.69H783.23C783.23 179.217 782.235 175.202 780.219 171.674L779.35 172.17L778.482 172.666C780.306 175.858 781.23 179.523 781.23 183.69H782.23ZM779.35 172.17L780.232 171.698C778.311 168.106 775.667 165.29 772.305 163.273L771.79 164.13L771.276 164.988C774.314 166.81 776.71 169.354 778.469 172.642L779.35 172.17ZM771.79 164.13L772.32 163.282C768.948 161.175 765.122 160.13 760.87 160.13V161.13V162.13C764.779 162.13 768.232 163.085 771.26 164.978L771.79 164.13ZM760.87 161.13V160.13C756.695 160.13 752.873 161.177 749.43 163.276L749.95 164.13L750.471 164.984C753.587 163.083 757.046 162.13 760.87 162.13V161.13ZM749.95 164.13L749.436 163.273C746.074 165.29 743.43 168.106 741.509 171.698L742.39 172.17L743.272 172.642C745.031 169.354 747.427 166.81 750.465 164.988L749.95 164.13ZM742.39 172.17L741.513 171.69C739.583 175.215 738.63 179.224 738.63 183.69H739.63H740.63C740.63 179.516 741.518 175.845 743.267 172.65L742.39 172.17ZM739.63 183.69H738.63C738.63 188.08 739.584 192.084 741.509 195.682L742.39 195.21L743.272 194.738C741.516 191.456 740.63 187.78 740.63 183.69H739.63ZM742.39 195.21L741.513 195.69C743.434 199.198 746.073 202.006 749.42 204.098L749.95 203.25L750.48 202.402C747.428 200.494 745.026 197.942 743.267 194.73L742.39 195.21ZM749.95 203.25L749.445 204.113C752.887 206.128 756.702 207.13 760.87 207.13V206.13V205.13C757.038 205.13 753.574 204.213 750.456 202.387L749.95 203.25ZM824.965 213.57L824.48 214.444L824.489 214.449L824.499 214.455L824.965 213.57ZM814.645 203.13L813.767 203.608L813.773 203.62L814.645 203.13ZM812.605 152.49L811.898 151.783V151.783L812.605 152.49ZM821.365 152.49L820.634 153.172L820.658 153.198L820.683 153.221L821.365 152.49ZM825.685 197.49L824.816 197.984L824.822 197.994L825.685 197.49ZM832.525 203.97L832.078 204.864L832.088 204.869L832.098 204.874L832.525 203.97ZM851.365 203.97L850.918 203.076L850.907 203.081L851.365 203.97ZM857.845 198.45L858.669 199.018V199.018L857.845 198.45ZM860.245 190.65V189.65H859.245V190.65H860.245ZM867.805 190.65H868.805V189.65H867.805V190.65ZM864.085 204.09L863.235 203.563L863.232 203.569L863.228 203.576L864.085 204.09ZM854.125 213.57L853.645 212.693L853.638 212.697L854.125 213.57ZM861.925 214.77L861.194 215.452L861.218 215.478L861.243 215.501L861.925 214.77ZM861.925 152.37L861.243 151.639L861.23 151.651L861.218 151.663L861.925 152.37ZM870.805 152.37L871.512 151.663L870.805 152.37ZM870.805 214.77L871.512 215.477L871.525 215.465L871.536 215.452L870.805 214.77ZM839.845 217.05V216.05C834.47 216.05 829.673 214.922 825.432 212.685L824.965 213.57L824.499 214.455C829.058 216.858 834.181 218.05 839.845 218.05V217.05ZM824.965 213.57L825.451 212.696C821.302 210.391 817.992 207.049 815.517 202.64L814.645 203.13L813.773 203.62C816.418 208.331 819.988 211.949 824.48 214.444L824.965 213.57ZM814.645 203.13L815.524 202.652C813.143 198.274 811.925 192.849 811.925 186.33H810.925H809.925C809.925 193.091 811.188 198.866 813.767 203.608L814.645 203.13ZM810.925 186.33H811.925V156.81H810.925H809.925V186.33H810.925ZM810.925 156.81H811.925C811.925 155.283 812.402 154.108 813.312 153.197L812.605 152.49L811.898 151.783C810.569 153.112 809.925 154.817 809.925 156.81H810.925ZM812.605 152.49L813.312 153.197C814.317 152.192 815.54 151.69 817.045 151.69V150.69V149.69C815.031 149.69 813.293 150.388 811.898 151.783L812.605 152.49ZM817.045 150.69V151.69C818.551 151.69 819.718 152.191 820.634 153.172L821.365 152.49L822.096 151.808C820.772 150.389 819.06 149.69 817.045 149.69V150.69ZM821.365 152.49L820.683 153.221C821.665 154.137 822.165 155.305 822.165 156.81H823.165H824.165C824.165 154.795 823.466 153.083 822.048 151.759L821.365 152.49ZM823.165 156.81H822.165V186.33H823.165H824.165V156.81H823.165ZM823.165 186.33H822.165C822.165 190.93 823.027 194.833 824.816 197.984L825.685 197.49L826.555 196.996C824.983 194.227 824.165 190.69 824.165 186.33H823.165ZM825.685 197.49L824.822 197.994C826.596 201.035 829.018 203.334 832.078 204.864L832.525 203.97L832.973 203.076C830.273 201.726 828.135 199.705 826.549 196.986L825.685 197.49ZM832.525 203.97L832.098 204.874C835.128 206.305 838.517 207.01 842.245 207.01V206.01V205.01C838.774 205.01 835.682 204.355 832.952 203.066L832.525 203.97ZM842.245 206.01V207.01C845.819 207.01 849.021 206.303 851.823 204.859L851.365 203.97L850.907 203.081C848.43 204.357 845.551 205.01 842.245 205.01V206.01ZM851.365 203.97L851.813 204.864C854.671 203.435 856.965 201.487 858.669 199.018L857.845 198.45L857.022 197.882C855.525 200.053 853.499 201.785 850.918 203.076L851.365 203.97ZM857.845 198.45L858.669 199.018C860.386 196.527 861.245 193.728 861.245 190.65H860.245H859.245C859.245 193.332 858.504 195.733 857.022 197.882L857.845 198.45ZM860.245 190.65V191.65H867.805V190.65V189.65H860.245V190.65ZM867.805 190.65H866.805C866.805 195.434 865.612 199.73 863.235 203.563L864.085 204.09L864.935 204.617C867.519 200.45 868.805 195.786 868.805 190.65H867.805ZM864.085 204.09L863.228 203.576C860.923 207.418 857.735 210.455 853.645 212.693L854.125 213.57L854.605 214.447C858.995 212.045 862.448 208.762 864.943 204.605L864.085 204.09ZM854.125 213.57L853.638 212.697C849.645 214.924 845.057 216.05 839.845 216.05V217.05V218.05C845.354 218.05 850.286 216.856 854.612 214.443L854.125 213.57ZM866.365 216.45V215.45C864.839 215.45 863.608 214.973 862.608 214.039L861.925 214.77L861.243 215.501C862.642 216.807 864.372 217.45 866.365 217.45V216.45ZM861.925 214.77L862.656 214.088C861.722 213.087 861.245 211.857 861.245 210.33H860.245H859.245C859.245 212.323 859.888 214.053 861.194 215.452L861.925 214.77ZM860.245 210.33H861.245V156.81H860.245H859.245V210.33H860.245ZM860.245 156.81H861.245C861.245 155.189 861.73 153.979 862.632 153.077L861.925 152.37L861.218 151.663C859.88 153.001 859.245 154.751 859.245 156.81H860.245ZM861.925 152.37L862.608 153.101C863.608 152.167 864.839 151.69 866.365 151.69V150.69V149.69C864.372 149.69 862.642 150.333 861.243 151.639L861.925 152.37ZM866.365 150.69V151.69C867.986 151.69 869.196 152.175 870.098 153.077L870.805 152.37L871.512 151.663C870.174 150.325 868.424 149.69 866.365 149.69V150.69ZM870.805 152.37L870.098 153.077C871 153.979 871.485 155.189 871.485 156.81H872.485H873.485C873.485 154.751 872.85 153.001 871.512 151.663L870.805 152.37ZM872.485 156.81H871.485V210.33H872.485H873.485V156.81H872.485ZM872.485 210.33H871.485C871.485 211.857 871.008 213.087 870.074 214.088L870.805 214.77L871.536 215.452C872.842 214.053 873.485 212.323 873.485 210.33H872.485ZM870.805 214.77L870.098 214.063C869.196 214.965 867.986 215.45 866.365 215.45V216.45V217.45C868.424 217.45 870.174 216.815 871.512 215.477L870.805 214.77ZM902.322 214.41L901.973 215.347L901.982 215.351L901.992 215.354L902.322 214.41ZM891.282 207.81L890.553 208.494L890.564 208.506L890.575 208.517L891.282 207.81ZM889.722 203.49L888.732 203.349L888.729 203.369L888.727 203.391L889.722 203.49ZM892.122 199.41L892.73 200.204L892.738 200.198L892.747 200.191L892.122 199.41ZM896.802 197.85L896.646 198.838L896.674 198.842L896.703 198.845L896.802 197.85ZM900.882 199.89L901.627 199.223L901.62 199.215L901.613 199.208L900.882 199.89ZM907.362 204.21L906.945 205.119L906.959 205.125L906.974 205.132L907.362 204.21ZM928.002 203.85L927.48 202.997L927.473 203.001L927.467 203.005L928.002 203.85ZM931.842 197.97L932.842 198.003V198.003L931.842 197.97ZM928.362 191.73L927.758 192.527L927.764 192.532L927.771 192.536L928.362 191.73ZM915.522 187.41L915.328 188.391L915.337 188.393L915.346 188.394L915.522 187.41ZM897.882 180.21L897.218 180.957L897.226 180.965L897.882 180.21ZM896.082 158.37L896.822 159.043L896.827 159.037L896.832 159.032L896.082 158.37ZM905.322 152.37L905.644 153.317L905.653 153.314L905.662 153.31L905.322 152.37ZM931.122 152.85L931.503 151.925V151.925L931.122 152.85ZM940.842 159.81L940.065 160.44L940.077 160.454L940.09 160.469L940.842 159.81ZM942.402 163.89L943.4 163.949L943.401 163.945L942.402 163.89ZM940.362 167.37L940.929 168.194L940.946 168.182L940.962 168.17L940.362 167.37ZM935.802 168.21L935.623 169.194V169.194L935.802 168.21ZM931.362 166.05L930.67 166.771L930.68 166.781L931.362 166.05ZM924.882 162.09L924.586 163.045V163.045L924.882 162.09ZM907.842 162.81L907.407 161.91L907.395 161.916L907.842 162.81ZM905.322 172.05L904.465 172.565L904.485 172.599L904.508 172.631L905.322 172.05ZM909.882 175.17L909.488 176.089L909.502 176.095L909.517 176.101L909.882 175.17ZM919.722 177.81L919.523 178.79L919.526 178.791L919.722 177.81ZM933.882 182.37L933.411 183.252L933.419 183.256L933.882 182.37ZM941.442 188.85L940.59 189.373L940.593 189.379L940.597 189.385L941.442 188.85ZM940.722 207.21L939.894 206.65L939.888 206.658L939.883 206.666L940.722 207.21ZM932.082 214.29L931.666 213.381L931.658 213.384L932.082 214.29ZM917.922 216.93V215.93C912.423 215.93 907.336 215.105 902.653 213.466L902.322 214.41L901.992 215.354C906.908 217.075 912.221 217.93 917.922 217.93V216.93ZM902.322 214.41L902.672 213.473C898.042 211.747 894.499 209.613 891.989 207.103L891.282 207.81L890.575 208.517C893.345 211.287 897.163 213.553 901.973 215.347L902.322 214.41ZM891.282 207.81L892.012 207.126C890.989 206.035 890.589 204.874 890.717 203.59L889.722 203.49L888.727 203.391C888.536 205.306 889.175 207.025 890.553 208.494L891.282 207.81ZM889.722 203.49L890.712 203.631C890.915 202.213 891.576 201.087 892.73 200.204L892.122 199.41L891.515 198.616C889.949 199.813 889.01 201.407 888.732 203.349L889.722 203.49ZM892.122 199.41L892.747 200.191C894.204 199.025 895.488 198.655 896.646 198.838L896.802 197.85L896.958 196.862C895.077 196.565 893.241 197.235 891.497 198.629L892.122 199.41ZM896.802 197.85L896.703 198.845C898.056 198.98 899.193 199.546 900.151 200.572L900.882 199.89L901.613 199.208C900.331 197.834 898.749 197.04 896.902 196.855L896.802 197.85ZM900.882 199.89L900.137 200.557C901.627 202.222 903.926 203.732 906.945 205.119L907.362 204.21L907.78 203.301C904.878 201.968 902.858 200.598 901.627 199.223L900.882 199.89ZM907.362 204.21L906.974 205.132C910.15 206.469 913.644 207.13 917.442 207.13V206.13V205.13C913.88 205.13 910.654 204.511 907.75 203.288L907.362 204.21ZM917.442 206.13V207.13C922.163 207.13 925.905 206.362 928.537 204.695L928.002 203.85L927.467 203.005C925.299 204.378 922.001 205.13 917.442 205.13V206.13ZM928.002 203.85L928.525 204.703C931.222 203.05 932.748 200.813 932.842 198.003L931.842 197.97L930.843 197.937C930.776 199.927 929.743 201.61 927.48 202.997L928.002 203.85ZM931.842 197.97L932.842 198.003C932.935 195.193 931.548 192.826 928.954 190.924L928.362 191.73L927.771 192.536C929.977 194.154 930.909 195.947 930.843 197.937L931.842 197.97ZM928.362 191.73L928.967 190.933C926.442 189.018 921.953 187.548 915.699 186.426L915.522 187.41L915.346 188.394C921.572 189.512 925.642 190.922 927.758 192.527L928.362 191.73ZM915.522 187.41L915.716 186.429C907.704 184.842 902.025 182.487 898.538 179.455L897.882 180.21L897.226 180.965C901.099 184.333 907.181 186.778 915.328 188.391L915.522 187.41ZM897.882 180.21L898.547 179.463C895.151 176.444 893.482 172.792 893.482 168.45H892.482H891.482C891.482 173.388 893.414 177.576 897.218 180.957L897.882 180.21ZM892.482 168.45H893.482C893.482 164.581 894.614 161.472 896.822 159.043L896.082 158.37L895.342 157.697C892.751 160.548 891.482 164.159 891.482 168.45H892.482ZM896.082 158.37L896.832 159.032C899.106 156.454 902.033 154.546 905.644 153.317L905.322 152.37L905 151.423C901.091 152.754 897.858 154.846 895.332 157.708L896.082 158.37ZM905.322 152.37L905.662 153.31C909.311 151.991 913.116 151.33 917.082 151.33V150.33V149.33C912.889 149.33 908.853 150.029 904.982 151.43L905.322 152.37ZM917.082 150.33V151.33C922.257 151.33 926.803 152.153 930.741 153.775L931.122 152.85L931.503 151.925C927.281 150.187 922.468 149.33 917.082 149.33V150.33ZM931.122 152.85L930.741 153.775C934.691 155.401 937.786 157.629 940.065 160.44L940.842 159.81L941.619 159.18C939.098 156.071 935.713 153.659 931.503 151.925L931.122 152.85ZM940.842 159.81L940.09 160.469C941.071 161.59 941.467 162.702 941.404 163.835L942.402 163.89L943.401 163.945C943.498 162.198 942.854 160.59 941.595 159.152L940.842 159.81ZM942.402 163.89L941.404 163.831C941.344 164.845 940.852 165.752 939.762 166.57L940.362 167.37L940.962 168.17C942.432 167.068 943.3 165.655 943.4 163.949L942.402 163.89ZM940.362 167.37L939.796 166.546C938.767 167.253 937.524 167.507 935.981 167.226L935.802 168.21L935.623 169.194C937.6 169.553 939.398 169.247 940.929 168.194L940.362 167.37ZM935.802 168.21L935.981 167.226C934.392 166.937 933.092 166.296 932.044 165.319L931.362 166.05L930.68 166.781C932.033 168.044 933.692 168.843 935.623 169.194L935.802 168.21ZM931.362 166.05L932.055 165.329C929.959 163.316 927.667 161.907 925.179 161.135L924.882 162.09L924.586 163.045C926.738 163.713 928.766 164.944 930.67 166.771L931.362 166.05ZM924.882 162.09L925.179 161.135C922.742 160.379 919.959 160.01 916.842 160.01V161.01V162.01C919.806 162.01 922.382 162.361 924.586 163.045L924.882 162.09ZM916.842 161.01V160.01C913.212 160.01 910.055 160.629 907.407 161.91L907.842 162.81L908.278 163.71C910.59 162.592 913.433 162.01 916.842 162.01V161.01ZM907.842 162.81L907.395 161.916C906.081 162.572 905.034 163.414 904.316 164.467C903.593 165.528 903.242 166.748 903.242 168.09H904.242H905.242C905.242 167.112 905.492 166.292 905.968 165.593C906.451 164.886 907.203 164.248 908.289 163.704L907.842 162.81ZM904.242 168.09H903.242C903.242 169.706 903.649 171.204 904.465 172.565L905.322 172.05L906.18 171.536C905.556 170.496 905.242 169.354 905.242 168.09H904.242ZM905.322 172.05L904.508 172.631C905.469 173.975 907.193 175.105 909.488 176.089L909.882 175.17L910.276 174.251C908.092 173.315 906.776 172.365 906.136 171.469L905.322 172.05ZM909.882 175.17L909.517 176.101C911.837 177.013 915.184 177.906 919.523 178.79L919.722 177.81L919.922 176.83C915.62 175.954 912.407 175.087 910.248 174.239L909.882 175.17ZM919.722 177.81L919.526 178.791C925.478 179.981 930.092 181.477 933.411 183.252L933.882 182.37L934.354 181.488C930.793 179.583 925.966 178.039 919.918 176.829L919.722 177.81ZM933.882 182.37L933.419 183.256C936.835 185.042 939.193 187.093 940.59 189.373L941.442 188.85L942.295 188.327C940.652 185.647 937.969 183.378 934.345 181.484L933.882 182.37ZM941.442 188.85L940.597 189.385C942.004 191.605 942.722 194.215 942.722 197.25H943.722H944.722C944.722 193.885 943.921 190.895 942.287 188.315L941.442 188.85ZM943.722 197.25H942.722C942.722 200.737 941.778 203.861 939.894 206.65L940.722 207.21L941.551 207.77C943.666 204.639 944.722 201.123 944.722 197.25H943.722ZM940.722 207.21L939.883 206.666C938.085 209.438 935.367 211.684 931.666 213.381L932.082 214.29L932.499 215.199C936.477 213.376 939.519 210.902 941.561 207.754L940.722 207.21ZM932.082 214.29L931.658 213.384C928.07 215.064 923.507 215.93 917.922 215.93V216.93V217.93C923.698 217.93 928.574 217.036 932.506 215.196L932.082 214.29ZM470.76 348.05L470.355 348.964L470.363 348.968L470.371 348.971L470.76 348.05ZM456 337.85L455.273 338.537L455.28 338.544L455.286 338.55L456 337.85ZM446.16 322.49L445.231 322.859L445.235 322.87L446.16 322.49ZM446.16 284.81L445.235 284.43L445.232 284.436L446.16 284.81ZM456 269.57L455.28 268.876L455.28 268.876L456 269.57ZM470.76 259.25L470.355 258.336V258.336L470.76 259.25ZM504.84 257.93L504.498 258.87L504.504 258.872L504.84 257.93ZM518.28 265.85L517.645 266.623L517.662 266.637L517.68 266.65L518.28 265.85ZM519.72 267.41L518.852 267.906L518.895 267.983L518.952 268.05L519.72 267.41ZM520.44 268.97L519.45 269.111L519.463 269.201L519.491 269.286L520.44 268.97ZM519 274.61L519.678 275.345L519.68 275.343L519 274.61ZM515.16 276.29L515.213 277.289L515.239 277.287L515.265 277.285L515.16 276.29ZM510.72 274.73L510.066 275.486L510.086 275.503L510.106 275.519L510.72 274.73ZM501.48 268.85L501.08 269.767L501.089 269.77L501.48 268.85ZM464.64 277.61L463.916 276.92L463.907 276.93L464.64 277.61ZM457.32 289.37L458.248 289.741L458.251 289.736L457.32 289.37ZM457.32 317.93L456.389 318.296L456.392 318.301L457.32 317.93ZM464.64 329.57L463.907 330.251L463.916 330.26L464.64 329.57ZM475.68 337.49L475.261 338.398L475.268 338.401L475.275 338.405L475.68 337.49ZM500.52 338.21L500.873 339.146L500.884 339.141L500.52 338.21ZM511.08 332.33L510.494 331.519L510.486 331.525L511.08 332.33ZM515.28 331.01L515.163 332.003L515.194 332.007L515.225 332.008L515.28 331.01ZM518.88 332.69L518.145 333.368L518.159 333.383L518.173 333.397L518.88 332.69ZM519.84 339.17L520.754 339.576L520.761 339.559L520.768 339.541L519.84 339.17ZM518.4 341.21L519.023 341.992L519.067 341.957L519.107 341.917L518.4 341.21ZM504.48 349.01L504.146 348.068L504.141 348.069L504.48 349.01ZM489 351.65V350.65C482.647 350.65 476.7 349.474 471.149 347.129L470.76 348.05L470.371 348.971C476.18 351.426 482.393 352.65 489 352.65V351.65ZM470.76 348.05L471.165 347.136C465.679 344.706 460.864 341.378 456.714 337.15L456 337.85L455.286 338.55C459.616 342.962 464.641 346.434 470.355 348.964L470.76 348.05ZM456 337.85L456.727 337.163C452.655 332.856 449.44 327.841 447.085 322.11L446.16 322.49L445.235 322.87C447.68 328.819 451.025 334.044 455.273 338.537L456 337.85ZM446.16 322.49L447.089 322.121C444.82 316.408 443.68 310.214 443.68 303.53H442.68H441.68C441.68 310.446 442.86 316.892 445.231 322.859L446.16 322.49ZM442.68 303.53H443.68C443.68 296.927 444.819 290.815 447.088 285.184L446.16 284.81L445.232 284.436C442.861 290.325 441.68 296.693 441.68 303.53H442.68ZM446.16 284.81L447.085 285.19C449.44 279.46 452.652 274.488 456.72 270.264L456 269.57L455.28 268.876C451.028 273.292 447.68 278.48 445.235 284.43L446.16 284.81ZM456 269.57L456.72 270.264C460.87 265.957 465.683 262.592 471.165 260.164L470.76 259.25L470.355 258.336C464.637 260.868 459.61 264.383 455.28 268.876L456 269.57ZM470.76 259.25L471.165 260.164C476.629 257.745 482.569 256.53 489 256.53V255.53V254.53C482.311 254.53 476.091 255.795 470.355 258.336L470.76 259.25ZM489 255.53V256.53C495.078 256.53 500.236 257.32 504.498 258.87L504.84 257.93L505.182 256.99C500.644 255.34 495.242 254.53 489 254.53V255.53ZM504.84 257.93L504.504 258.872C508.854 260.426 513.235 263 517.645 266.623L518.28 265.85L518.915 265.077C514.365 261.34 509.786 258.634 505.176 256.988L504.84 257.93ZM518.28 265.85L517.68 266.65C518.236 267.067 518.614 267.49 518.852 267.906L519.72 267.41L520.588 266.914C520.186 266.21 519.604 265.593 518.88 265.05L518.28 265.85ZM519.72 267.41L518.952 268.05C519.246 268.403 519.399 268.754 519.45 269.111L520.44 268.97L521.43 268.829C521.321 268.066 520.994 267.377 520.488 266.77L519.72 267.41ZM520.44 268.97L519.491 269.286C519.606 269.631 519.68 270.116 519.68 270.77H520.68H521.68C521.68 269.984 521.594 269.269 521.389 268.654L520.44 268.97ZM520.68 270.77H519.68C519.68 272.01 519.237 273.025 518.32 273.877L519 274.61L519.68 275.343C521.003 274.115 521.68 272.57 521.68 270.77H520.68ZM519 274.61L518.322 273.875C517.453 274.677 516.379 275.156 515.055 275.296L515.16 276.29L515.265 277.285C516.981 277.104 518.467 276.463 519.678 275.345L519 274.61ZM515.16 276.29L515.107 275.291C513.873 275.356 512.624 274.944 511.334 273.941L510.72 274.73L510.106 275.519C511.696 276.756 513.407 277.384 515.213 277.289L515.16 276.29ZM510.72 274.73L511.374 273.974C508.345 271.354 505.178 269.335 501.871 267.93L501.48 268.85L501.089 269.77C504.182 271.085 507.175 272.986 510.066 275.486L510.72 274.73ZM501.48 268.85L501.88 267.933C498.585 266.497 494.272 265.81 489 265.81V266.81V267.81C494.128 267.81 498.135 268.483 501.08 269.767L501.48 268.85ZM489 266.81V265.81C484.14 265.81 479.556 266.8 475.261 268.782L475.68 269.69L476.099 270.598C480.124 268.74 484.42 267.81 489 267.81V266.81ZM475.68 269.69L475.261 268.782C470.985 270.756 467.202 273.47 463.916 276.92L464.64 277.61L465.364 278.3C468.478 275.03 472.055 272.464 476.099 270.598L475.68 269.69ZM464.64 277.61L463.907 276.93C460.698 280.386 458.193 284.414 456.389 289.004L457.32 289.37L458.251 289.736C459.967 285.366 462.342 281.554 465.373 278.29L464.64 277.61ZM457.32 289.37L456.392 288.999C454.581 293.524 453.68 298.371 453.68 303.53H454.68H455.68C455.68 298.609 456.539 294.016 458.248 289.741L457.32 289.37ZM454.68 303.53H453.68C453.68 308.767 454.581 313.692 456.389 318.296L457.32 317.93L458.251 317.564C456.539 313.208 455.68 308.533 455.68 303.53H454.68ZM457.32 317.93L456.392 318.301C458.196 322.812 460.701 326.797 463.907 330.25L464.64 329.57L465.373 328.89C462.339 325.623 459.964 321.848 458.248 317.559L457.32 317.93ZM464.64 329.57L463.916 330.26C467.202 333.71 470.985 336.424 475.261 338.398L475.68 337.49L476.099 336.582C472.055 334.716 468.478 332.15 465.364 328.88L464.64 329.57ZM475.68 337.49L475.275 338.405C479.568 340.303 484.146 341.25 489 341.25V340.25V339.25C484.414 339.25 480.112 338.357 476.085 336.575L475.68 337.49ZM489 340.25V341.25C493.193 341.25 497.154 340.551 500.873 339.145L500.52 338.21L500.167 337.275C496.686 338.589 492.967 339.25 489 339.25V340.25ZM500.52 338.21L500.884 339.141C504.651 337.668 508.247 335.664 511.674 333.135L511.08 332.33L510.486 331.525C507.193 333.956 503.749 335.873 500.156 337.279L500.52 338.21ZM511.08 332.33L511.665 333.141C512.965 332.202 514.119 331.88 515.163 332.003L515.28 331.01L515.397 330.017C513.721 329.82 512.075 330.378 510.495 331.519L511.08 332.33ZM515.28 331.01L515.225 332.008C516.411 332.074 517.365 332.523 518.145 333.368L518.88 332.69L519.615 332.012C518.475 330.777 517.029 330.106 515.335 330.012L515.28 331.01ZM518.88 332.69L518.173 333.397C518.894 334.119 519.32 335.193 519.32 336.77H520.32H521.32C521.32 334.827 520.786 333.181 519.587 331.983L518.88 332.69ZM520.32 336.77H519.32C519.32 337.433 519.188 338.108 518.912 338.799L519.84 339.17L520.768 339.541C521.132 338.632 521.32 337.707 521.32 336.77H520.32ZM519.84 339.17L518.926 338.764C518.663 339.356 518.259 339.937 517.693 340.503L518.4 341.21L519.107 341.917C519.821 341.203 520.377 340.424 520.754 339.576L519.84 339.17ZM518.4 341.21L517.777 340.428C513.539 343.802 508.996 346.346 504.146 348.068L504.48 349.01L504.814 349.952C509.884 348.154 514.621 345.498 519.023 341.992L518.4 341.21ZM504.48 349.01L504.141 348.069C499.375 349.788 494.33 350.65 489 350.65V351.65V352.65C494.55 352.65 499.825 351.752 504.819 349.951L504.48 349.01ZM545.917 346.61L545.379 347.453L545.389 347.46L545.917 346.61ZM534.877 334.73L533.991 335.194L533.995 335.202L534 335.211L534.877 334.73ZM535.237 300.65L534.374 300.144L534.368 300.154L535.237 300.65ZM547.117 288.77L547.619 289.635L547.623 289.632L547.117 288.77ZM580.837 288.77L580.324 289.629L580.334 289.635L580.837 288.77ZM592.597 300.65L591.728 301.146L591.734 301.156L592.597 300.65ZM597.037 317.69V318.69H598.037V317.69H597.037ZM592.357 317.69V316.69H591.357V317.69H592.357ZM588.277 334.73L587.397 334.255L587.394 334.26L588.277 334.73ZM577.357 346.61L577.884 347.46L577.894 347.453L577.357 346.61ZM574.957 337.25L575.471 338.107L575.479 338.103L575.487 338.098L574.957 337.25ZM582.517 329.21L583.394 329.69L583.398 329.682L582.517 329.21ZM582.517 306.17L581.635 306.642L581.639 306.65L582.517 306.17ZM574.957 298.13L574.427 298.978L574.434 298.983L574.442 298.988L574.957 298.13ZM553.117 298.13L553.631 298.988L553.637 298.984L553.117 298.13ZM545.437 306.17L544.563 305.683L544.559 305.69L545.437 306.17ZM545.437 329.21L544.555 329.682L544.561 329.694L544.568 329.706L545.437 329.21ZM553.117 337.25L552.587 338.098L552.599 338.106L552.611 338.113L553.117 337.25ZM586.477 348.89L585.746 349.572L585.769 349.598L585.794 349.621L586.477 348.89ZM584.797 326.09L583.812 325.914L583.797 326.001V326.09H584.797ZM587.077 313.37L587.474 312.453L586.315 311.95L586.092 313.194L587.077 313.37ZM597.037 317.69H598.037V317.034L597.434 316.773L597.037 317.69ZM595.237 348.89L595.944 349.597V349.597L595.237 348.89ZM561.637 350.93V349.93C555.969 349.93 550.915 348.535 546.444 345.76L545.917 346.61L545.389 347.46C550.199 350.445 555.624 351.93 561.637 351.93V350.93ZM545.917 346.61L546.454 345.767C541.96 342.9 538.395 339.066 535.753 334.249L534.877 334.73L534 335.211C536.798 340.314 540.593 344.4 545.379 347.453L545.917 346.61ZM534.877 334.73L535.762 334.266C533.205 329.384 531.917 323.867 531.917 317.69H530.917H529.917C529.917 324.153 531.268 329.996 533.991 335.194L534.877 334.73ZM530.917 317.69H531.917C531.917 311.528 533.319 306.022 536.105 301.146L535.237 300.65L534.368 300.154C531.394 305.358 529.917 311.212 529.917 317.69H530.917ZM535.237 300.65L536.099 301.156C538.973 296.262 542.811 292.427 547.619 289.635L547.117 288.77L546.614 287.905C541.503 290.873 537.42 294.958 534.374 300.144L535.237 300.65ZM547.117 288.77L547.623 289.632C552.499 286.769 557.962 285.33 564.037 285.33V284.33V283.33C557.631 283.33 551.814 284.851 546.61 287.908L547.117 288.77ZM564.037 284.33V285.33C570.111 285.33 575.531 286.769 580.324 289.629L580.837 288.77L581.349 287.911C576.222 284.851 570.442 283.33 564.037 283.33V284.33ZM580.837 288.77L580.334 289.635C585.14 292.425 588.935 296.257 591.728 301.146L592.597 300.65L593.465 300.154C590.499 294.963 586.453 290.875 581.339 287.905L580.837 288.77ZM592.597 300.65L591.734 301.156C594.597 306.03 596.037 311.533 596.037 317.69H597.037H598.037C598.037 311.207 596.516 305.35 593.459 300.144L592.597 300.65ZM597.037 317.69V316.69H592.357V317.69V318.69H597.037V317.69ZM592.357 317.69H591.357C591.357 323.862 590.03 329.376 587.397 334.255L588.277 334.73L589.157 335.205C591.963 330.004 593.357 324.158 593.357 317.69H592.357ZM588.277 334.73L587.394 334.26C584.833 339.071 581.31 342.902 576.819 345.767L577.357 346.61L577.894 347.453C582.683 344.398 586.44 340.309 589.159 335.2L588.277 334.73ZM577.357 346.61L576.829 345.76C572.359 348.535 567.304 349.93 561.637 349.93V350.93V351.93C567.649 351.93 573.075 350.445 577.884 347.46L577.357 346.61ZM564.037 340.13V341.13C568.28 341.13 572.101 340.129 575.471 338.107L574.957 337.25L574.442 336.393C571.412 338.211 567.953 339.13 564.037 339.13V340.13ZM574.957 337.25L575.487 338.098C578.834 336.006 581.473 333.198 583.394 329.69L582.517 329.21L581.639 328.73C579.88 331.942 577.479 334.494 574.427 336.402L574.957 337.25ZM582.517 329.21L583.398 329.682C585.323 326.084 586.277 322.08 586.277 317.69H585.277H584.277C584.277 321.78 583.391 325.456 581.635 328.738L582.517 329.21ZM585.277 317.69H586.277C586.277 313.224 585.324 309.215 583.394 305.69L582.517 306.17L581.639 306.65C583.389 309.845 584.277 313.516 584.277 317.69H585.277ZM582.517 306.17L583.398 305.698C581.477 302.106 578.833 299.29 575.471 297.273L574.957 298.13L574.442 298.988C577.48 300.81 579.876 303.354 581.635 306.642L582.517 306.17ZM574.957 298.13L575.487 297.282C572.115 295.175 568.288 294.13 564.037 294.13V295.13V296.13C567.945 296.13 571.398 297.085 574.427 298.978L574.957 298.13ZM564.037 295.13V294.13C559.861 294.13 556.039 295.177 552.596 297.276L553.117 298.13L553.637 298.984C556.754 297.083 560.212 296.13 564.037 296.13V295.13ZM553.117 298.13L552.602 297.273C549.244 299.287 546.564 302.099 544.563 305.683L545.437 306.17L546.31 306.657C548.15 303.361 550.589 300.813 553.631 298.988L553.117 298.13ZM545.437 306.17L544.559 305.69C542.629 309.215 541.677 313.224 541.677 317.69H542.677H543.677C543.677 313.516 544.564 309.845 546.314 306.65L545.437 306.17ZM542.677 317.69H541.677C541.677 322.08 542.631 326.084 544.555 329.682L545.437 329.21L546.318 328.738C544.563 325.456 543.677 321.78 543.677 317.69H542.677ZM545.437 329.21L544.568 329.706C546.568 333.206 549.243 336.008 552.587 338.098L553.117 337.25L553.647 336.402C550.59 334.492 548.145 331.934 546.305 328.714L545.437 329.21ZM553.117 337.25L552.611 338.113C556.053 340.128 559.869 341.13 564.037 341.13V340.13V339.13C560.204 339.13 556.74 338.213 553.622 336.387L553.117 337.25ZM590.917 350.57V349.57C589.39 349.57 588.16 349.093 587.159 348.159L586.477 348.89L585.794 349.621C587.194 350.927 588.923 351.57 590.917 351.57V350.57ZM586.477 348.89L587.208 348.208C586.274 347.207 585.797 345.977 585.797 344.45H584.797H583.797C583.797 346.443 584.439 348.173 585.746 349.572L586.477 348.89ZM584.797 344.45H585.797V326.09H584.797H583.797V344.45H584.797ZM584.797 326.09L585.781 326.266L588.061 313.546L587.077 313.37L586.092 313.194L583.812 325.914L584.797 326.09ZM587.077 313.37L586.679 314.287L596.639 318.607L597.037 317.69L597.434 316.773L587.474 312.453L587.077 313.37ZM597.037 317.69H596.037V344.45H597.037H598.037V317.69H597.037ZM597.037 344.45H596.037C596.037 345.956 595.534 347.178 594.529 348.183L595.237 348.89L595.944 349.597C597.339 348.202 598.037 346.464 598.037 344.45H597.037ZM595.237 348.89L594.529 348.183C593.619 349.094 592.444 349.57 590.917 349.57V350.57V351.57C592.909 351.57 594.614 350.926 595.944 349.597L595.237 348.89ZM621.493 347.57L620.916 348.387V348.387L621.493 347.57ZM615.133 339.77L614.222 340.182L614.226 340.19L615.133 339.77ZM614.533 258.41L615.24 259.117V259.117L614.533 258.41ZM626.533 335.57L627.397 335.066V335.066L626.533 335.57ZM637.693 340.13L636.934 340.781L636.947 340.796L636.96 340.81L637.693 340.13ZM636.973 348.77L637.566 349.575V349.575L636.973 348.77ZM630.853 350.45V349.45C627.527 349.45 624.611 348.547 622.07 346.753L621.493 347.57L620.916 348.387C623.815 350.433 627.139 351.45 630.853 351.45V350.45ZM621.493 347.57L622.07 346.753C619.505 344.943 617.493 342.485 616.04 339.35L615.133 339.77L614.226 340.19C615.813 343.615 618.041 346.357 620.916 348.387L621.493 347.57ZM615.133 339.77L616.044 339.358C614.592 336.148 613.853 332.452 613.853 328.25H612.853H611.853C611.853 332.688 612.634 336.672 614.222 340.182L615.133 339.77ZM612.853 328.25H613.853V262.73H612.853H611.853V328.25H612.853ZM612.853 262.73H613.853C613.853 261.203 614.329 260.028 615.24 259.117L614.533 258.41L613.826 257.703C612.497 259.032 611.853 260.737 611.853 262.73H612.853ZM614.533 258.41L615.24 259.117C616.151 258.206 617.326 257.73 618.853 257.73V256.73V255.73C616.86 255.73 615.155 256.374 613.826 257.703L614.533 258.41ZM618.853 256.73V257.73C620.38 257.73 621.555 258.206 622.466 259.117L623.173 258.41L623.88 257.703C622.551 256.374 620.846 255.73 618.853 255.73V256.73ZM623.173 258.41L622.466 259.117C623.377 260.028 623.853 261.203 623.853 262.73H624.853H625.853C625.853 260.737 625.209 259.032 623.88 257.703L623.173 258.41ZM624.853 262.73H623.853V328.25H624.853H625.853V262.73H624.853ZM624.853 328.25H623.853C623.853 331.33 624.435 333.958 625.669 336.074L626.533 335.57L627.397 335.066C626.391 333.342 625.853 331.09 625.853 328.25H624.853ZM626.533 335.57L625.669 336.074C626.914 338.208 628.641 339.45 630.853 339.45V338.45V337.45C629.545 337.45 628.392 336.773 627.397 335.066L626.533 335.57ZM630.853 338.45V339.45H633.853V338.45V337.45H630.853V338.45ZM633.853 338.45V339.45C635.189 339.45 636.181 339.903 636.934 340.781L637.693 340.13L638.452 339.479C637.285 338.117 635.717 337.45 633.853 337.45V338.45ZM637.693 340.13L636.96 340.81C637.803 341.717 638.253 342.901 638.253 344.45H639.253H640.253C640.253 342.479 639.664 340.783 638.426 339.45L637.693 340.13ZM639.253 344.45H638.253C638.253 345.866 637.666 347.017 636.38 347.965L636.973 348.77L637.566 349.575C639.32 348.283 640.253 346.554 640.253 344.45H639.253ZM636.973 348.77L636.38 347.965C635.073 348.928 633.338 349.45 631.093 349.45V350.45V351.45C633.648 351.45 635.833 350.852 637.566 349.575L636.973 348.77ZM631.093 350.45V349.45H630.853V350.45V351.45H631.093V350.45ZM732.95 348.89L732.219 349.572L732.242 349.598L732.267 349.621L732.95 348.89ZM727.55 298.97L726.843 299.677L726.848 299.683L726.854 299.689L727.55 298.97ZM707.51 299.57L706.783 298.883L706.778 298.889L706.773 298.894L707.51 299.57ZM703.55 310.61V311.61H704.55V310.61H703.55ZM693.59 310.61H692.59V311.61H693.59V310.61ZM696.95 296.93L697.818 297.426L697.822 297.419L696.95 296.93ZM706.31 287.57L705.828 286.693L705.821 286.698L706.31 287.57ZM732.35 287.21L731.856 288.079V288.079L732.35 287.21ZM740.51 296.09L739.612 296.53L739.617 296.541L739.623 296.552L740.51 296.09ZM741.83 348.89L742.537 349.597L742.549 349.585L742.561 349.572L741.83 348.89ZM652.91 348.89L652.179 349.572L652.202 349.598L652.227 349.621L652.91 348.89ZM652.91 286.61L652.227 285.879L652.215 285.891L652.203 285.903L652.91 286.61ZM661.79 286.61L662.497 285.903L661.79 286.61ZM661.79 348.89L662.497 349.597L662.509 349.585L662.521 349.572L661.79 348.89ZM692.99 348.89L692.259 349.572L692.282 349.598L692.307 349.621L692.99 348.89ZM687.59 298.97L686.883 299.677L686.888 299.683L686.894 299.689L687.59 298.97ZM667.55 299.57L666.823 298.883V298.883L667.55 299.57ZM663.47 310.61V311.61H664.47V310.61H663.47ZM655.91 310.61H654.91V311.61H655.91V310.61ZM659.03 296.93L659.913 297.399L659.917 297.391L659.03 296.93ZM667.67 287.57L667.15 286.716V286.716L667.67 287.57ZM692.39 287.21L691.896 288.079V288.079L692.39 287.21ZM700.55 296.09L699.652 296.53L699.657 296.541L699.663 296.552L700.55 296.09ZM701.87 348.89L702.577 349.597L702.589 349.585L702.601 349.572L701.87 348.89ZM737.39 350.57V349.57C735.863 349.57 734.633 349.093 733.632 348.159L732.95 348.89L732.267 349.621C733.667 350.927 735.396 351.57 737.39 351.57V350.57ZM732.95 348.89L733.681 348.208C732.747 347.207 732.27 345.977 732.27 344.45H731.27H730.27C730.27 346.443 730.913 348.173 732.219 349.572L732.95 348.89ZM731.27 344.45H732.27V310.13H731.27H730.27V344.45H731.27ZM731.27 310.13H732.27C732.27 304.944 730.994 300.912 728.245 298.251L727.55 298.97L726.854 299.689C729.065 301.828 730.27 305.236 730.27 310.13H731.27ZM727.55 298.97L728.257 298.263C725.562 295.569 722.054 294.25 717.83 294.25V295.25V296.25C721.605 296.25 724.577 297.411 726.843 299.677L727.55 298.97ZM717.83 295.25V294.25C713.41 294.25 709.702 295.792 706.783 298.883L707.51 299.57L708.237 300.257C710.757 297.588 713.929 296.25 717.83 296.25V295.25ZM707.51 299.57L706.773 298.894C703.939 301.986 702.55 305.919 702.55 310.61H703.55H704.55C704.55 306.341 705.801 302.914 708.247 300.246L707.51 299.57ZM703.55 310.61V309.61H693.59V310.61V311.61H703.55V310.61ZM693.59 310.61H694.59C694.59 305.557 695.677 301.173 697.818 297.426L696.95 296.93L696.081 296.434C693.743 300.527 692.59 305.263 692.59 310.61H693.59ZM696.95 296.93L697.822 297.419C699.972 293.58 702.959 290.592 706.798 288.443L706.31 287.57L705.821 286.698C701.66 289.028 698.407 292.28 696.077 296.441L696.95 296.93ZM706.31 287.57L706.791 288.447C710.707 286.297 715.178 285.21 720.23 285.21V284.21V283.21C714.882 283.21 710.073 284.363 705.828 286.693L706.31 287.57ZM720.23 284.21V285.21C724.639 285.21 728.505 286.175 731.856 288.079L732.35 287.21L732.844 286.341C729.155 284.245 724.941 283.21 720.23 283.21V284.21ZM732.35 287.21L731.856 288.079C735.187 289.972 737.773 292.776 739.612 296.53L740.51 296.09L741.408 295.65C739.407 291.564 736.552 288.448 732.844 286.341L732.35 287.21ZM740.51 296.09L739.623 296.552C741.531 300.215 742.51 304.728 742.51 310.13H743.51H744.51C744.51 304.492 743.489 299.645 741.397 295.628L740.51 296.09ZM743.51 310.13H742.51V344.45H743.51H744.51V310.13H743.51ZM743.51 344.45H742.51C742.51 345.977 742.033 347.207 741.099 348.208L741.83 348.89L742.561 349.572C743.867 348.173 744.51 346.443 744.51 344.45H743.51ZM741.83 348.89L741.123 348.183C740.221 349.085 739.011 349.57 737.39 349.57V350.57V351.57C739.449 351.57 741.199 350.935 742.537 349.597L741.83 348.89ZM657.35 350.57V349.57C655.823 349.57 654.593 349.093 653.592 348.159L652.91 348.89L652.227 349.621C653.627 350.927 655.356 351.57 657.35 351.57V350.57ZM652.91 348.89L653.641 348.208C652.707 347.207 652.23 345.977 652.23 344.45H651.23H650.23C650.23 346.443 650.873 348.173 652.179 349.572L652.91 348.89ZM651.23 344.45H652.23V291.05H651.23H650.23V344.45H651.23ZM651.23 291.05H652.23C652.23 289.429 652.715 288.219 653.617 287.317L652.91 286.61L652.203 285.903C650.865 287.241 650.23 288.991 650.23 291.05H651.23ZM652.91 286.61L653.592 287.341C654.593 286.407 655.823 285.93 657.35 285.93V284.93V283.93C655.356 283.93 653.627 284.573 652.227 285.879L652.91 286.61ZM657.35 284.93V285.93C658.971 285.93 660.181 286.415 661.083 287.317L661.79 286.61L662.497 285.903C661.159 284.565 659.409 283.93 657.35 283.93V284.93ZM661.79 286.61L661.083 287.317C661.985 288.219 662.47 289.429 662.47 291.05H663.47H664.47C664.47 288.991 663.835 287.241 662.497 285.903L661.79 286.61ZM663.47 291.05H662.47V344.45H663.47H664.47V291.05H663.47ZM663.47 344.45H662.47C662.47 345.977 661.993 347.207 661.059 348.208L661.79 348.89L662.521 349.572C663.827 348.173 664.47 346.443 664.47 344.45H663.47ZM661.79 348.89L661.083 348.183C660.181 349.085 658.971 349.57 657.35 349.57V350.57V351.57C659.409 351.57 661.159 350.935 662.497 349.597L661.79 348.89ZM697.43 350.57V349.57C695.903 349.57 694.673 349.093 693.672 348.159L692.99 348.89L692.307 349.621C693.707 350.927 695.436 351.57 697.43 351.57V350.57ZM692.99 348.89L693.721 348.208C692.787 347.207 692.31 345.977 692.31 344.45H691.31H690.31C690.31 346.443 690.953 348.173 692.259 349.572L692.99 348.89ZM691.31 344.45H692.31V310.13H691.31H690.31V344.45H691.31ZM691.31 310.13H692.31C692.31 304.944 691.034 300.912 688.285 298.251L687.59 298.97L686.894 299.689C689.105 301.828 690.31 305.236 690.31 310.13H691.31ZM687.59 298.97L688.297 298.263C685.602 295.569 682.094 294.25 677.87 294.25V295.25V296.25C681.645 296.25 684.617 297.411 686.883 299.677L687.59 298.97ZM677.87 295.25V294.25C673.45 294.25 669.742 295.792 666.823 298.883L667.55 299.57L668.277 300.257C670.797 297.588 673.969 296.25 677.87 296.25V295.25ZM667.55 299.57L666.823 298.883C663.904 301.974 662.47 305.911 662.47 310.61H663.47H664.47C664.47 306.349 665.755 302.926 668.277 300.257L667.55 299.57ZM663.47 310.61V309.61H655.91V310.61V311.61H663.47V310.61ZM655.91 310.61H656.91C656.91 305.545 657.922 301.151 659.913 297.399L659.03 296.93L658.146 296.461C655.978 300.549 654.91 305.275 654.91 310.61H655.91ZM659.03 296.93L659.917 297.391C661.917 293.546 664.673 290.565 668.19 288.424L667.67 287.57L667.15 286.716C663.306 289.055 660.303 292.315 658.142 296.469L659.03 296.93ZM667.67 287.57L668.19 288.424C671.698 286.289 675.715 285.21 680.27 285.21V284.21V283.21C675.384 283.21 671.001 284.371 667.15 286.716L667.67 287.57ZM680.27 284.21V285.21C684.679 285.21 688.545 286.175 691.896 288.079L692.39 287.21L692.884 286.341C689.195 284.245 684.981 283.21 680.27 283.21V284.21ZM692.39 287.21L691.896 288.079C695.227 289.972 697.813 292.776 699.652 296.53L700.55 296.09L701.448 295.65C699.447 291.564 696.592 288.448 692.884 286.341L692.39 287.21ZM700.55 296.09L699.663 296.552C701.571 300.215 702.55 304.728 702.55 310.13H703.55H704.55C704.55 304.492 703.529 299.645 701.437 295.628L700.55 296.09ZM703.55 310.13H702.55V344.45H703.55H704.55V310.13H703.55ZM703.55 344.45H702.55C702.55 345.977 702.073 347.207 701.139 348.208L701.87 348.89L702.601 349.572C703.907 348.173 704.55 346.443 704.55 344.45H703.55ZM701.87 348.89L701.163 348.183C700.261 349.085 699.051 349.57 697.43 349.57V350.57V351.57C699.489 351.57 701.239 350.935 702.577 349.597L701.87 348.89Z" fill="#5C4D4D" mask="url(#path-9-outside-1_24_23)"/>
</svg>
