<svg width="401" height="327" viewBox="0 0 401 327" fill="none" xmlns="http://www.w3.org/2000/svg">
<path d="M394.132 273.003C357.522 343.97 323.04 309.551 214.991 309.551C106.942 309.551 45.915 372.356 9.90203 259.659C-26.1109 146.961 37.6086 16.9126 176.603 0.845945C315.598 -15.2207 430.743 202.036 394.132 273.003Z" fill="#EADBFF"/>
<ellipse cx="60.8261" cy="220.163" rx="34.6933" ry="31.5754" fill="#EEAACE"/>
<ellipse cx="338.372" cy="197.671" rx="34.6933" ry="31.5754" fill="#EEAACE"/>
<path d="M261.263 126.302C264.047 144.911 284.699 168.676 304.078 132.801" stroke="#5C4D4D" stroke-width="12" stroke-linecap="round"/>
<path d="M70 152.372C81.932 166.921 111.847 176.737 110.092 136" stroke="#5C4D4D" stroke-width="12" stroke-linecap="round"/>
<path d="M164.005 148.234C174.548 188.999 203.508 233.351 205.614 143.603" stroke="#5C4D4D" stroke-width="9" stroke-linecap="round"/>
</svg>
