<svg width="457" height="356" viewBox="0 0 457 356" fill="none" xmlns="http://www.w3.org/2000/svg">
<path d="M72.106 138.674C73.5188 129.951 67.5928 121.734 58.8699 120.322L58.0531 120.189C36.2459 116.657 15.7045 131.472 12.1726 153.28L6.39523 188.951C2.86333 210.758 17.6784 231.3 39.4856 234.832L40.3024 234.964C49.0253 236.377 57.2418 230.451 58.6546 221.728L72.106 138.674Z" fill="#FFFCEE"/>
<path d="M367.73 110.638C362.908 103.233 365.003 93.321 372.409 88.4998L375.299 86.6181C393.813 74.5651 418.592 79.8024 430.645 98.3161L450.361 128.6C462.414 147.114 457.176 171.893 438.663 183.946L435.772 185.827C428.367 190.649 418.455 188.554 413.634 181.148L367.73 110.638Z" fill="#FFFCEE"/>
<path d="M443.132 301.797C406.522 372.764 372.04 338.345 263.991 338.345C155.942 338.345 94.915 401.151 58.902 288.453C22.8891 175.756 86.6086 45.7068 225.603 29.6401C364.598 13.5735 479.743 230.831 443.132 301.797Z" fill="#EADBFF"/>
<ellipse cx="109.826" cy="248.957" rx="34.6933" ry="31.5754" fill="#EEAACE"/>
<ellipse cx="387.372" cy="226.465" rx="34.6933" ry="31.5754" fill="#EEAACE"/>
<path d="M310.263 155.096C313.047 173.705 333.699 197.47 353.078 161.595" stroke="#5C4D4D" stroke-width="12" stroke-linecap="round"/>
<path d="M119 181.166C130.932 195.716 160.847 205.531 159.092 164.794" stroke="#5C4D4D" stroke-width="12" stroke-linecap="round"/>
<path d="M213.004 177.028C223.548 217.794 252.507 262.145 254.613 172.397" stroke="#5C4D4D" stroke-width="9" stroke-linecap="round"/>
<path d="M58.5452 145.421C58.5452 145.421 80.9016 28.3346 198.629 9.74427C316.357 -8.84604 382.487 94.2678 382.487 94.2678" stroke="#FFFCEE" stroke-width="15"/>
</svg>
